<svg id="Layer_1" data-name="Layer 1" xmlns="http://www.w3.org/2000/svg" viewBox="0 0 290.5 290.5"><defs><style>.cls-1{fill:#fff;stroke:#000;stroke-miterlimit:10;}</style></defs><path class="cls-1" d="M149.8,6A144.75,144.75,0,1,0,294.55,150.75,144.75,144.75,0,0,0,149.8,6Zm2.26,48.57A16.36,16.36,0,1,1,135.7,70.93,16.37,16.37,0,0,1,152.06,54.57Zm59.16,43.72-38.05,7.95a23.35,23.35,0,0,1-2.9.46v50L200,225.78a6.56,6.56,0,0,1-3.42,8.59l-5.73,2.47A6,6,0,0,1,183,233.7l-32.3-75.1h-.83l-32.3,75.1a6,6,0,0,1-7.87,3.14l-5.84-2.52a6.81,6.81,0,0,1-3.56-8.93l29.27-68V106.71c-.9-.17-1.71-.35-2.29-.47L89.21,98.29a6,6,0,0,1-4.32-6.71L85,91c.4-3.12,3-5.18,5.79-4.59l38.05,8c.51.06,1,.13,1.44.2h38.53l.63-.1,40.28-8c2.79-.59,5.38,1.47,5.79,4.59l.07.54A6,6,0,0,1,211.22,98.29Z" transform="translate(-4.56 -5.5)"/></svg>