<?xml version="1.0" encoding="utf-8"?>
<!-- Generator: Adobe Illustrator 25.2.0, SVG Export Plug-In . SVG Version: 6.00 Build 0)  -->
<svg version="1.1" id="Layer_1" xmlns="http://www.w3.org/2000/svg" xmlns:xlink="http://www.w3.org/1999/xlink" x="0px" y="0px"
	 viewBox="0 0 290.5 290.5" style="enable-background:new 0 0 290.5 290.5;" xml:space="preserve">
<style type="text/css">
	.st0{fill:#FFFFFF;stroke:#000000;stroke-width:2;stroke-miterlimit:10;}
</style>
<path class="st0" d="M145.2,0.5C65.3,0.5,0.5,65.3,0.5,145.2S65.3,290,145.2,290S290,225.2,290,145.2l0,0
	C290,65.3,225.2,0.5,145.2,0.5L145.2,0.5z M147.5,49.1c9,0,16.4,7.3,16.4,16.4s-7.3,16.4-16.4,16.4s-16.4-7.3-16.4-16.4l0,0
	C131.1,56.4,138.5,49.1,147.5,49.1z M206.7,92.8l-38.1,7.9c-1,0.2-1.9,0.4-2.9,0.5v50l29.7,69.1c1.4,3.3-0.1,7.2-3.4,8.6l-5.7,2.5
	c-3,1.3-6.5-0.1-7.9-3.1l-32.3-75.1h-0.8L113,228.2c-1.3,3-4.8,4.4-7.9,3.1l-5.8-2.5c-3.4-1.5-5-5.5-3.6-8.9l29.3-68v-50.7
	c-0.9-0.2-1.7-0.3-2.3-0.5l-38.1-7.9c-2.9-0.8-4.8-3.7-4.3-6.7l0.1-0.6c0.4-3.1,3-5.2,5.8-4.6l38.1,8c0.5,0.1,1,0.1,1.4,0.2h38.5
	l0.6-0.1l40.3-8c2.8-0.6,5.4,1.5,5.8,4.6l0.1,0.5C211.5,89.1,209.6,92,206.7,92.8L206.7,92.8z"/>
</svg>
