<?xml version="1.0" encoding="utf-8"?>
<!-- Generator: Adobe Illustrator 25.2.0, SVG Export Plug-In . SVG Version: 6.00 Build 0)  -->
<svg version="1.1" id="Layer_1" xmlns="http://www.w3.org/2000/svg" xmlns:xlink="http://www.w3.org/1999/xlink" x="0px" y="0px"
	 viewBox="0 0 294.2 271.3" style="enable-background:new 0 0 294.2 271.3;" xml:space="preserve">
<style type="text/css">
	.st0{fill:#FFFFFF;stroke:#000000;stroke-width:2;stroke-miterlimit:10;}
</style>
<g transform="translate(-3.32 -17.23)">
	<path class="st0" d="M172.1,80.9h-23.3c-0.7,0-1.4,0.1-2.1,0.2c-2.2-7.1-5.9-13.6-10.8-19.2l11.1-19.7c4.1-7.2,1.5-16.3-5.6-20.4
		c0,0,0,0,0,0l-3.8-2.2c-7.2-4.1-16.3-1.5-20.4,5.6c0,0,0,0,0,0l-10.9,19.4c-6.7-1.3-13.7-1.4-20.4-0.1L74.6,25.7
		c-4.2-7.1-13.4-9.4-20.5-5.2c0,0,0,0,0,0l-3.8,2.2c-7.1,4.2-9.4,13.4-5.2,20.5L56,61.6c-4.9,5.5-8.6,12-10.8,19.1
		c-1-0.2-2-0.3-3.1-0.3H18.8c-8.3,0-14.9,6.7-14.9,14.9c0,0,0,0,0,0v4.4c0,8.3,6.7,14.9,14.9,14.9c0,0,0,0,0,0h23.3
		c1.2,0,2.3-0.1,3.4-0.4c2.3,6.8,6.1,13.1,10.9,18.5c-0.1,0.2-0.3,0.4-0.4,0.7l-11.4,20.4c-4,7.2-1.4,16.3,5.8,20.3l3.8,2.1
		c7.2,4,16.3,1.4,20.3-5.8L86,150c0.1-0.2,0.2-0.5,0.4-0.8c6.2,1.1,12.5,1.2,18.7,0.1c0.2,0.3,0.3,0.6,0.5,0.9l11.6,20.2
		c4.1,7.2,13.2,9.6,20.4,5.6c0,0,0,0,0,0l3.8-2.2c7.2-4.1,9.6-13.2,5.6-20.4c0,0,0,0,0,0l-11.6-20.2l-0.2-0.3
		c4.8-5.2,8.5-11.3,10.9-18c0.9,0.2,1.9,0.3,2.8,0.3h23.3c8.3,0,14.9-6.7,14.9-14.9v0v-4.4C187.1,87.6,180.4,80.9,172.1,80.9
		L172.1,80.9z M95.8,115.7c-10.2,0-18.5-8.3-18.5-18.5c0-10.2,8.3-18.5,18.5-18.5c10.2,0,18.5,8.3,18.5,18.5c0,0,0,0,0,0
		C114.3,107.5,106,115.7,95.8,115.7z"/>
	<path class="st0" d="M282.1,190.9h-23.3c-0.7,0-1.4,0.1-2.1,0.2c-2.2-7.1-5.9-13.6-10.8-19.2l11.1-19.7c4.1-7.2,1.5-16.3-5.6-20.3
		c0,0,0,0,0,0l-3.8-2.2c-7.2-4.1-16.3-1.5-20.3,5.6c0,0,0,0,0,0l-10.9,19.4c-6.7-1.3-13.7-1.4-20.4-0.1l-11.2-18.9
		c-4.2-7.1-13.4-9.4-20.5-5.2l-3.8,2.2c-7.1,4.2-9.4,13.4-5.2,20.5l10.9,18.4c-4.9,5.5-8.6,12-10.9,19.1c-1-0.2-2-0.3-3.1-0.3h-23.3
		c-8.3,0-14.9,6.7-14.9,14.9l0,0v4.4c0,8.3,6.7,14.9,14.9,14.9l0,0H152c1.2,0,2.3-0.1,3.4-0.4c2.3,6.8,6.1,13.1,10.9,18.5
		c-0.1,0.2-0.3,0.4-0.4,0.7l-11.4,20.4c-4,7.2-1.4,16.3,5.8,20.3l3.9,2.1c7.2,4,16.3,1.4,20.3-5.8c0,0,0,0,0,0l11.4-20.4
		c0.1-0.2,0.2-0.5,0.4-0.8c6.2,1.1,12.5,1.1,18.7,0.1c0.1,0.3,0.3,0.6,0.5,0.9l11.6,20.2c4.1,7.2,13.2,9.6,20.4,5.5c0,0,0,0,0,0
		l3.8-2.2c7.2-4.1,9.6-13.2,5.6-20.4c0,0,0,0,0,0l-11.6-20.2c-0.1-0.1-0.1-0.2-0.2-0.3c4.8-5.2,8.5-11.3,10.9-18
		c0.9,0.2,1.9,0.3,2.8,0.3h23.3c8.3,0,14.9-6.7,14.9-14.9l0,0v-4.4C297,197.6,290.4,190.9,282.1,190.9L282.1,190.9z M205.8,225.7
		c-10.2,0-18.5-8.3-18.5-18.5c0-10.2,8.3-18.5,18.5-18.5c10.2,0,18.5,8.3,18.5,18.5l0,0C224.3,217.4,216,225.7,205.8,225.7
		C205.8,225.7,205.8,225.7,205.8,225.7z"/>
</g>
</svg>
