<svg viewBox="0 0 294.24 271.31" xmlns="http://www.w3.org/2000/svg"><g fill="#fff" stroke="#000" stroke-miterlimit="10" transform="translate(-3.32 -17.23)"><path d="m172.15 80.92h-23.33a14.37 14.37 0 0 0 -2.09.17 53.39 53.39 0 0 0 -10.79-19.24l11.11-19.65a14.94 14.94 0 0 0 -5.65-20.36l-3.84-2.17a14.94 14.94 0 0 0 -20.36 5.65l-10.94 19.35a53.26 53.26 0 0 0 -20.44-.06l-11.23-18.93a14.93 14.93 0 0 0 -20.47-5.23l-3.79 2.24a15 15 0 0 0 -5.23 20.48l10.9 18.42a53.19 53.19 0 0 0 -10.85 19.06 14.73 14.73 0 0 0 -3.07-.32h-23.32a14.94 14.94 0 0 0 -14.94 14.94v4.41a14.94 14.94 0 0 0 14.94 14.94h23.32a14.84 14.84 0 0 0 3.43-.41 53.19 53.19 0 0 0 10.91 18.46c-.14.22-.28.43-.41.66l-11.36 20.38a14.93 14.93 0 0 0 5.77 20.29l3.85 2.15a15 15 0 0 0 20.33-5.77l11.4-20.38c.13-.24.24-.5.37-.75a52.64 52.64 0 0 0 18.73.06c.15.31.29.62.46.92l11.58 20.25a14.94 14.94 0 0 0 20.39 5.55l3.83-2.19a14.94 14.94 0 0 0 5.55-20.39l-11.58-20.25-.21-.32a53.25 53.25 0 0 0 10.9-18 15.63 15.63 0 0 0 2.84.27h23.33a14.94 14.94 0 0 0 14.94-14.94v-4.4a14.94 14.94 0 0 0 -14.98-14.89zm-76.34 34.82a18.48 18.48 0 1 1 18.47-18.47 18.48 18.48 0 0 1 -18.47 18.47z"/><path d="m282.11 190.89h-23.32a16.08 16.08 0 0 0 -2.1.16 53.05 53.05 0 0 0 -10.79-19.23l11.1-19.66a14.93 14.93 0 0 0 -5.65-20.35l-3.84-2.17a14.93 14.93 0 0 0 -20.36 5.65l-10.94 19.35a53.21 53.21 0 0 0 -20.43-.06l-11.23-18.94a14.94 14.94 0 0 0 -20.47-5.23l-3.8 2.25a14.94 14.94 0 0 0 -5.23 20.47l10.95 18.42a53.15 53.15 0 0 0 -10.87 19.07 14.8 14.8 0 0 0 -3.07-.32h-23.34a14.94 14.94 0 0 0 -14.94 14.94v4.41a14.94 14.94 0 0 0 14.94 14.94h23.33a15 15 0 0 0 3.43-.41 53.19 53.19 0 0 0 10.91 18.46c-.14.22-.29.43-.42.66l-11.36 20.37a15 15 0 0 0 5.77 20.33l3.86 2.14a14.93 14.93 0 0 0 20.32-5.77l11.36-20.37c.14-.25.25-.5.37-.75a53.27 53.27 0 0 0 18.73.06c.15.3.3.61.47.91l11.58 20.25a14.93 14.93 0 0 0 20.38 5.53l3.83-2.19a14.93 14.93 0 0 0 5.55-20.38l-11.58-20.23c-.06-.11-.14-.21-.2-.32a53.27 53.27 0 0 0 10.89-18 14.81 14.81 0 0 0 2.85.28h23.32a14.94 14.94 0 0 0 14.94-14.94v-4.41a14.94 14.94 0 0 0 -14.94-14.92zm-76.34 34.82a18.48 18.48 0 1 1 18.48-18.48 18.47 18.47 0 0 1 -18.48 18.48z"/></g></svg>