<svg viewBox="0 0 191.12 285" xmlns="http://www.w3.org/2000/svg"><g fill="#fff" stroke="#000" stroke-miterlimit="10"><circle cx="142.2" cy="142.97" r="46.96"/><path d="m205.47 11h-95.33a47.39 47.39 0 0 0 -47.39 47.39 47.39 47.39 0 0 0 43.51 47.22 47.65 47.65 0 0 0 -43.42 47.46 47.67 47.67 0 0 0 40.49 47.13 47.63 47.63 0 0 0 -40.49 47.1v.07a47.62 47.62 0 0 0 47.62 47.63 47.17 47.17 0 0 0 47.17-47.16v-142h47.84a47.39 47.39 0 0 0 47.39-47.44 47.39 47.39 0 0 0 -47.39-47.4z" transform="translate(-62.25 -10.5)"/></g></svg>