<?xml version="1.0" encoding="utf-8"?>
<!-- Generator: Adobe Illustrator 25.2.0, SVG Export Plug-In . SVG Version: 6.00 Build 0)  -->
<svg version="1.1" id="Layer_1" xmlns="http://www.w3.org/2000/svg" xmlns:xlink="http://www.w3.org/1999/xlink" x="0px" y="0px"
	 viewBox="0 0 191.1 285" style="enable-background:new 0 0 191.1 285;" xml:space="preserve">
<style type="text/css">
	.st0{fill:#FFFFFF;stroke:#000000;stroke-width:2;stroke-miterlimit:10;}
</style>
<g>
	<circle class="st0" cx="142.2" cy="143" r="47"/>
	<path class="st0" d="M143.2,0.5H47.9C21.7,0.5,0.5,21.7,0.5,47.9l0,0c0,24.7,18.9,45.2,43.5,47.2c-24.6,2.2-43.4,22.8-43.4,47.5
		c0,23.6,17.2,43.6,40.5,47.1c-23.3,3.5-40.5,23.5-40.5,47.1v0.1c0,26.3,21.3,47.6,47.6,47.6c0,0,0,0,0,0c26,0,47.2-21.1,47.2-47.2
		v-142h47.8c26.2,0,47.4-21.2,47.4-47.4c0,0,0,0,0-0.1C190.6,21.7,169.4,0.5,143.2,0.5C143.2,0.5,143.2,0.5,143.2,0.5L143.2,0.5z"/>
</g>
</svg>
