<?xml version="1.0" encoding="utf-8"?>
<!-- Generator: Adobe Illustrator 25.2.0, SVG Export Plug-In . SVG Version: 6.00 Build 0)  -->
<svg version="1.1" id="Layer_1" xmlns="http://www.w3.org/2000/svg" xmlns:xlink="http://www.w3.org/1999/xlink" x="0px" y="0px"
	 viewBox="0 0 212.2 291.5" style="enable-background:new 0 0 212.2 291.5;" xml:space="preserve">
<style type="text/css">
	.st0{fill:#FFFFFF;stroke:#000000;stroke-width:2;stroke-miterlimit:10;}
	.st1{opacity:0.89;fill:#FFFFFF;stroke:#000000;stroke-width:2;stroke-miterlimit:10;enable-background:new    ;}
</style>
<g transform="translate(-50.72 -2.5)">
	<path class="st0" d="M51.2,235.1L87,7.4c0.4-2.8,3.1-4.8,5.9-4.3c1.6,0.2,3,1.2,3.8,2.6l66,119.2"/>
	<path class="st1" d="M51.3,234.8c0.3,0.7,76.8-145.3,98.8-187.6c1.7-3.3,5.9-4.6,9.2-2.9c1.2,0.6,2.2,1.6,2.9,2.8l27.5,51.2"/>
	<path class="st0" d="M166.8,290.9l95.5-54L234.8,65.7c-0.5-3-3.3-5-6.2-4.5c-1.1,0.2-2.1,0.7-3,1.5L51.3,235
		c-0.2,0.2-0.2,0.4,0,0.6c0,0,0,0,0.1,0.1l95.7,55.2C153.2,294.3,160.7,294.4,166.8,290.9z"/>
</g>
</svg>
