<svg id="Layer_1" data-name="Layer 1" xmlns="http://www.w3.org/2000/svg" viewBox="0 0 212.17 291.48"><defs><style>.cls-1,.cls-2{fill:#fff;stroke:#000;stroke-miterlimit:10;}.cls-2{opacity:0.89;}</style></defs><path class="cls-1" d="M162.7,124.88" transform="translate(-50.72 -2.5)"/><path class="cls-1" d="M51.25,235.06,87,7.39a5.19,5.19,0,0,1,9.68-1.7L162.7,124.88" transform="translate(-50.72 -2.5)"/><path class="cls-2" d="M51.32,234.8c.33.7,76.75-145.29,98.78-187.64a6.82,6.82,0,0,1,12.05-.09l27.47,51.24" transform="translate(-50.72 -2.5)"/><path class="cls-1" d="M192.4,103.07" transform="translate(-50.72 -2.5)"/><path class="cls-1" d="M166.83,290.9l95.51-54L234.84,65.71a5.42,5.42,0,0,0-9.16-3L51.34,235a.41.41,0,0,0,.08.64l95.65,55.17A19.93,19.93,0,0,0,166.83,290.9Z" transform="translate(-50.72 -2.5)"/></svg>