<svg viewBox="0 0 294.47 295.07" xmlns="http://www.w3.org/2000/svg"><path d="m290.52 136.07-127.24-127.24a19.92 19.92 0 0 0 -28.19 0l-26 26.1 34.63 34.08.83-.59a14.79 14.79 0 0 1 5.32-.64c12.52 0 23.1 10 23.13 22.51a22.62 22.62 0 0 1 -1.12 7.11l31.66 32 .93.82s0 0 0 0c7-2.36 17-2.82 23.73 4.86 18.39 24.14-8.91 51.44-33.05 33.05-8.45-7.55-7.4-17.74-4.38-25l-29.77-30.26a0 0 0 0 0 -.07 0l-.43 79.6v.14c11.62 6 17.33 21.87 6.15 36.55-19.1 15.3-39.09 1.21-39.09-16.53a22.6 22.6 0 0 1 13-20.49v.27l-.06-81.69v-.26a22 22 0 0 1 -12.67-20.07 16.83 16.83 0 0 1 1.67-7.93l.39-1-33.84-33.46-87.36 87.71a19.91 19.91 0 0 0 0 28.15l127.72 127.39a19.92 19.92 0 0 0 28.2-.07l126-127a19.92 19.92 0 0 0 -.09-28.11z" fill="#fff" stroke="#000" stroke-miterlimit="10" transform="translate(-2.38 -2.5)"/></svg>