<svg id="Layer_1" data-name="Layer 1" xmlns="http://www.w3.org/2000/svg" viewBox="0 0 294.47 295.07"><defs><style>.cls-1{fill:#fff;stroke:#000;stroke-miterlimit:10;}</style></defs><path class="cls-1" d="M290.52,136.07,163.28,8.83a19.92,19.92,0,0,0-28.19,0l-26,26.1,0,0,34.63,34.08.83-.59h0a14.79,14.79,0,0,1,5.32-.64c12.52,0,23.1,10,23.13,22.51a22.62,22.62,0,0,1-1.12,7.11l31.66,32h0l.93.82s0,0,0,0c7-2.36,17-2.82,23.73,4.86h0c18.39,24.14-8.91,51.44-33.05,33.05h0c-8.45-7.55-7.4-17.74-4.38-25L161,112.87a0,0,0,0,0-.07,0l-.43,79.6,0,.14c11.62,6,17.33,21.87,6.15,36.55h0c-19.1,15.3-39.09,1.21-39.09-16.53a22.6,22.6,0,0,1,13-20.49l0,.27-.06-81.69,0-.26a22,22,0,0,1-12.67-20.07,16.83,16.83,0,0,1,1.67-7.93l.39-1L96.05,48,8.69,135.71a19.91,19.91,0,0,0,0,28.15L136.41,291.25a19.92,19.92,0,0,0,28.2-.07l126-127A19.92,19.92,0,0,0,290.52,136.07Z" transform="translate(-2.38 -2.5)"/><path class="cls-1" d="M190.77,143.2c.07-.17.14-.33.22-.5a.06.06,0,0,0,0,0l-30.13-30.12Z" transform="translate(-2.38 -2.5)"/></svg>