<?xml version="1.0" encoding="utf-8"?>
<!-- Generator: Adobe Illustrator 25.2.0, SVG Export Plug-In . SVG Version: 6.00 Build 0)  -->
<svg version="1.1" id="Layer_1" xmlns="http://www.w3.org/2000/svg" xmlns:xlink="http://www.w3.org/1999/xlink" x="0px" y="0px"
	 viewBox="0 0 294.5 295.1" style="enable-background:new 0 0 294.5 295.1;" xml:space="preserve">
<style type="text/css">
	.st0{fill:#FFFFFF;stroke:#000000;stroke-width:2;stroke-miterlimit:10;}
</style>
<g>
	<polygon class="st0" points="138.2,189.6 138.2,189.6 138.2,189.9 	"/>
	<path class="st0" d="M258.4,134.6"/>
	<path class="st0" d="M209.7,130.6"/>
	<path class="st0" d="M202.1,127.7c7-2.4,17-2.8,23.7,4.9c18.4,24.1-8.9,51.4-33.1,33c-8.4-7.5-7.4-17.7-4.4-25l-26.8-27.2l-3-3.1
		l-0.4,79.6v0.1c11.6,6,17.3,21.9,6.1,36.5c-19.1,15.3-39.1,1.2-39.1-16.5c0-8.8,5.1-16.8,13-20.5l-0.1-81.4V108
		c-7.8-3.6-12.7-11.5-12.7-20.1c-0.1-2.7,0.5-5.5,1.7-7.9l0.4-1L93.7,45.5L6.3,133.2c-7.8,7.8-7.8,20.4,0,28.1L134,288.8
		c7.8,7.8,20.4,7.7,28.2,0c0,0,0,0,0,0l126-127c7.7-7.8,6.5-15.4-5-27.7v0.2L160.9,6.3c-7.8-7.8-20.4-7.8-28.2,0c0,0,0,0,0,0
		l-26,26.1l34.6,34.1l0.8-0.6c1.7-0.5,3.5-0.8,5.3-0.6c12.5,0,23.1,10,23.1,22.5c0,2.4-0.4,4.8-1.1,7.1l33.3,32.9"/>
	<path class="st0" d="M202.1,127.7"/>
	<path class="st0" d="M196.5,121.9"/>
</g>
</svg>
