<svg id="Layer_1" data-name="Layer 1" xmlns="http://www.w3.org/2000/svg" viewBox="0 0 295 295"><defs><style>.cls-1{fill:#fff;stroke:#000;stroke-miterlimit:10;}</style></defs><path class="cls-1" d="M107.88,111.69a.41.41,0,0,0-.78,0L88.69,166a.41.41,0,0,0,.39.55h35.85a.42.42,0,0,0,.4-.54Z" transform="translate(-2.3 -2.5)"/><path class="cls-1" d="M2.8,3V297h294V3ZM142.5,223.5l-11-34h-49l-11,34h-29l48-140h35l48,140Zm88.47-.31H204v-103h27Zm-13-117.51a13.5,13.5,0,1,1,13.5-13.5A13.5,13.5,0,0,1,217.93,105.68Z" transform="translate(-2.3 -2.5)"/></svg>