<svg viewBox="0 0 293.4 292.3" xmlns="http://www.w3.org/2000/svg"><path d="m2.6 3v291.3h292.4v-291.3zm158.67 234.57c-.42 7.39-2.27 18.88-15.07 27.48 0 0-26 15.76-52.12-1.56-7.42-4.93-14.56-16.64-14.56-16.64l22.72-13.79s4.91 14.23 18.5 14.13 14-15.29 14-19.55c-.11-24.95-.24-91.33-.24-91.33l28-.31s.23 75.81-1.23 101.57zm111.56-5.67c-.16 38.08-41.59 39.91-41.59 39.91-44.37 1.07-54.24-27.81-54.24-27.81l22.2-12.33c9.56 16.43 28.7 15.47 28.7 15.47 17.46-1.8 17.15-12.89 17.15-12.89.56-16.64-17.51-16.42-35.87-26-28.48-14.86-24.11-40.48-24.11-40.48 2.29-31.65 37.56-33.41 37.56-33.41 31.47-1.63 41.46 22.85 41.47 22.87l-20.62 12.89s-4.85-6.14-6.7-8a15.29 15.29 0 0 0 -17.27-3.36c-5.42 2.43-10.38 10.76-6.14 17 3.34 4.94 11.06 9 15.56 10.92 11 4.73 15.46 7.18 20 9.47 27.07 13.85 23.9 35.75 23.9 35.75z" fill="#fff" stroke="#000" stroke-miterlimit="10" transform="translate(-2.1 -2.5)"/></svg>