<?xml version="1.0" encoding="utf-8"?>
<!-- Generator: Adobe Illustrator 25.2.0, SVG Export Plug-In . SVG Version: 6.00 Build 0)  -->
<svg version="1.1" id="Layer_1" xmlns="http://www.w3.org/2000/svg" xmlns:xlink="http://www.w3.org/1999/xlink" x="0px" y="0px"
	 viewBox="0 0 293.4 292.3" style="enable-background:new 0 0 293.4 292.3;" xml:space="preserve">
<style type="text/css">
	.st0{fill:#FFFFFF;stroke:#000000;stroke-width:2;stroke-miterlimit:10;}
</style>
<path class="st0" d="M0.5,0.5v291.3h292.4V0.5H0.5z M159.2,235.1c-0.4,7.4-2.3,18.9-15.1,27.5c0,0-26,15.8-52.1-1.6
	c-7.4-4.9-14.6-16.6-14.6-16.6l22.7-13.8c0,0,4.9,14.2,18.5,14.1s14-15.3,14-19.6c-0.1-24.9-0.2-91.3-0.2-91.3l28-0.3
	C160.4,133.5,160.6,209.3,159.2,235.1L159.2,235.1z M270.7,229.4c-0.2,38.1-41.6,39.9-41.6,39.9c-44.4,1.1-54.2-27.8-54.2-27.8
	l22.2-12.3c9.6,16.4,28.7,15.5,28.7,15.5c17.5-1.8,17.1-12.9,17.1-12.9c0.6-16.6-17.5-16.4-35.9-26c-28.5-14.9-24.1-40.5-24.1-40.5
	c2.3-31.6,37.6-33.4,37.6-33.4c31.5-1.6,41.5,22.9,41.5,22.9l-20.6,12.9c0,0-4.9-6.1-6.7-8c-4.5-4.7-11.4-6-17.3-3.4
	c-5.4,2.4-10.4,10.8-6.1,17c3.3,4.9,11.1,9,15.6,10.9c11,4.7,15.5,7.2,20,9.5C273.9,207.5,270.7,229.4,270.7,229.4L270.7,229.4z"/>
</svg>
