<?xml version="1.0" encoding="utf-8"?>
<!-- Generator: Adobe Illustrator 25.2.0, SVG Export Plug-In . SVG Version: 6.00 Build 0)  -->
<svg version="1.1" id="Layer_1" xmlns="http://www.w3.org/2000/svg" xmlns:xlink="http://www.w3.org/1999/xlink" x="0px" y="0px"
	 viewBox="0 0 293 293" style="enable-background:new 0 0 293 293;" xml:space="preserve">
<style type="text/css">
	.st0{fill:#FFFFFF;stroke:#000000;stroke-width:2;stroke-miterlimit:10;}
</style>
<g transform="translate(-3.3 -2.5)">
	<path class="st0" d="M127.6,100.9c-2.6-2.3-5.7-4.1-9-5.1c-4.5-1.4-9.2-2-13.9-1.9h-13V143H104c4.1,0,8.3-0.5,12.2-1.7
		c3.5-1,6.7-2.7,9.5-4.9c2.6-2.2,4.7-4.9,6.1-8c1.5-3.4,2.2-7.1,2.2-10.8c0-3.1-0.5-6.2-1.5-9.1C131.5,105.6,129.9,103,127.6,100.9z
		"/>
	<path class="st0" d="M3.8,3v292h292V3H3.8z M157.1,126.9c-1.4,7-4.5,13.6-9.1,19.1c-2.8,3.3-6.2,6.2-9.9,8.4
		c-4.5,2.7-9.4,4.7-14.4,6c-6.5,1.6-13.1,2.4-19.8,2.3H91.8v53.4H67.6v-138h39.2c7.7-0.1,15.4,0.9,22.8,3.1c5.8,1.7,11.3,4.6,16,8.5
		c4.1,3.5,7.4,7.9,9.4,12.9c2.1,5.2,3.1,10.7,3.1,16.3C158,121.6,157.7,124.3,157.1,126.9z M190.4,216.9c-11.3,0-21.6-2.9-28.5-7
		l4.8-18.4c5.2,3.5,15.4,7.3,23.9,7.3c10.4,0,15.1-4.7,15.1-11.2c0-6.8-3.9-10.2-15.4-14.6c-18.3-6.7-26-17.4-25.9-29.2
		c0-17.6,13.7-31.3,35.5-31.3c10.3,0,19.3,2.8,24.8,6l-4.7,17.8c-6-3.6-12.8-5.6-19.8-5.8c-8.4,0-13.1,4.4-13.1,10.6
		c0,6.4,4.5,9.4,16.3,14c17,6.4,24.9,15.8,25,30.5C228.4,203.7,215.1,216.9,190.4,216.9L190.4,216.9z"/>
</g>
</svg>
