<svg id="Layer_1" data-name="Layer 1" xmlns="http://www.w3.org/2000/svg" viewBox="0 0 293 293"><defs><style>.cls-1{fill:#fff;stroke:#000;stroke-miterlimit:10;}</style></defs><path class="cls-1" d="M127.63,100.91a24.46,24.46,0,0,0-9-5.1,43.77,43.77,0,0,0-13.87-1.9H91.8V143L104,143a42.13,42.13,0,0,0,12.24-1.67,27,27,0,0,0,9.5-4.93,21.78,21.78,0,0,0,6.12-8,25.92,25.92,0,0,0,2.16-10.83,27.25,27.25,0,0,0-1.5-9.11A18.5,18.5,0,0,0,127.63,100.91Z" transform="translate(-3.3 -2.5)"/><path class="cls-1" d="M3.8,3V295h292V3ZM157.13,126.89A42.77,42.77,0,0,1,148,146a39.72,39.72,0,0,1-9.9,8.45,54.22,54.22,0,0,1-14.44,6,75.64,75.64,0,0,1-19.77,2.29H91.8v53.36H67.59v-138h39.18a74.91,74.91,0,0,1,22.76,3.08,45.72,45.72,0,0,1,16,8.49,33.72,33.72,0,0,1,9.42,12.9A42.46,42.46,0,0,1,158,118.88,43.7,43.7,0,0,1,157.13,126.89Zm33.23,90c-11.32,0-21.62-2.9-28.51-7l4.76-18.44c5.22,3.46,15.41,7.31,23.88,7.31,10.41,0,15.06-4.67,15.06-11.24,0-6.79-3.86-10.23-15.37-14.61-18.32-6.71-26-17.38-25.87-29.25,0-17.62,13.68-31.35,35.52-31.35,10.31,0,19.33,2.76,24.83,6L220,136.06a40.35,40.35,0,0,0-19.79-5.77c-8.42,0-13.11,4.45-13.11,10.61,0,6.36,4.51,9.42,16.34,14,17,6.45,24.89,15.75,25,30.51C228.37,203.71,215.08,216.89,190.36,216.89Z" transform="translate(-3.3 -2.5)"/></svg>