<svg viewBox="0 0 297.46 266.93" xmlns="http://www.w3.org/2000/svg"><g fill="#fff" stroke="#000" stroke-miterlimit="10"><path d="m287.27 126.58c-15-10.69-28.22-17.59-45.77-23.08l-2.14-.69c2.77-19.47 4.59-39.2 1.53-55-2.42-12.48-10-24.1-22.25-27.54s-25.59-.14-36.62 6.17-20.18 16.4-29.18 25.38l-.34-.35c-16.19-11.47-27.13-20.84-44.64-30.27-11.13-6-30.32-2.49-39 6.66s-9.86 19.24-9.63 31.88 1.58 28.08 5.09 40.26a11.33 11.33 0 0 1 -4.19 2 246.14 246.14 0 0 0 -46.63 24.5c-10.27 7-13.73 21.5-10.1 33.35s13.17 21.27 24 27.38 23 9.36 35 12.56a246.86 246.86 0 0 0 -2.94 56.14c.82 12.8 11.91 23.44 24.4 26.34s25.8-.83 36.81-7.43 21.46-16.76 30.43-25.92l-.22.29c9.13 9 19.3 19.51 30.46 25.85s25.54 11.45 37.91 8 20.1-16.93 21.71-29.53c2.22-17.38-.7-35-1.05-52.56 10.74-3.78 22.77-7.25 33.46-13.5s20.05-15.66 23.65-27.5.32-26.2-9.75-33.39zm-124.93-66.81c6-4.81 20.3-16.2 26-20.53 18.8-14.39 29.08-8.31 29.08-8.31 7.37 3.15 9.92 12.36 11.49 20.09 2 9.58-2.2 34.67-3.79 43.54a3.37 3.37 0 0 1 -3.76 2.75l-33.88-4.37a3.44 3.44 0 0 1 -2.13-1.15l-23.46-27.17a3.38 3.38 0 0 1 .45-4.85zm-72.55 108.07 15.43 26.72a.38.38 0 0 1 -.36.56l-27-2.22a.38.38 0 0 1 -.31-.54l11.57-24.49a.38.38 0 0 1 .67-.03zm-11.73-58.22a.38.38 0 0 1 .31-.54l27-2.22a.38.38 0 0 1 .36.56l-15.43 26.72a.38.38 0 0 1 -.67 0zm17.22 41.38 27.6-47.81h55.21l27.6 47.81-27.6 47.82h-55.21zm100.33 43.1 15.39-26.68a.38.38 0 0 1 .67 0l11.57 24.49a.38.38 0 0 1 -.31.54l-27 2.23a.38.38 0 0 1 -.32-.54zm15.7-60.27a.38.38 0 0 1 -.67 0l-15.42-26.72a.38.38 0 0 1 .35-.57l27 2.23a.38.38 0 0 1 .31.54zm-60.53-66.6 15.43 22.26a.39.39 0 0 1 -.31.6h-30.9a.39.39 0 0 1 -.31-.6l15.43-22.26a.37.37 0 0 1 .66.04zm-70-35.06c6.59-4.53 15.74-1.77 23.12 1 9.14 3.46 28.12 20.39 34.77 26.47a3.37 3.37 0 0 1 .32 4.65l-21.8 26.3a3.44 3.44 0 0 1 -2.11 1.19l-35.46 5.34a3.38 3.38 0 0 1 -3.87-3c-.84-7.66-2.84-25.81-3.47-32.92-2.12-23.54 8.52-28.99 8.52-28.99zm-13.53 153.26a3.39 3.39 0 0 1 -4.51 1.86c-7.06-3.1-23.76-10.47-30.23-13.48-21.47-10-20.86-21.9-20.86-21.9-.62-8 6.35-14.52 12.47-19.51 7.58-6.17 31.73-14.13 40.33-16.84a3.38 3.38 0 0 1 4.18 2.06l11.85 32a3.37 3.37 0 0 1 0 2.42zm70.21 59.72c-6.3 4.44-21.23 15-27.14 18.94-19.62 13.24-29.52 6.56-29.52 6.56-7.17-3.58-9.16-12.93-10.28-20.74-1.38-9.67 4.26-34.47 6.38-43.23a3.38 3.38 0 0 1 3.92-2.53l33.56 6.39a3.38 3.38 0 0 1 2.06 1.27l21.76 28.52a3.39 3.39 0 0 1 -.74 4.82zm13.4-10.71a.38.38 0 0 1 -.63 0l-15.42-22.26a.38.38 0 0 1 .31-.6h30.88a.38.38 0 0 1 .31.6zm70.55 36.67c-6.6 4.53-15.75 1.77-23.13-1-9.13-3.46-28.12-20.38-34.77-26.47a3.37 3.37 0 0 1 -.31-4.65l21.8-26.3a3.42 3.42 0 0 1 2.11-1.19l35.48-5.27a3.38 3.38 0 0 1 3.86 3c.85 7.66 2.84 25.81 3.48 32.92 2.07 23.51-8.52 28.96-8.52 28.96zm55.89-102.22c-7.52 6.24-31.6 14.41-40.17 17.19a3.38 3.38 0 0 1 -4.21-2l-12.12-31.96a3.42 3.42 0 0 1 0-2.42l12.91-33.46a3.4 3.4 0 0 1 4.5-1.9c7.07 3 23.85 10.26 30.34 13.22 21.55 9.78 21 21.72 21 21.72.75 7.98-6.17 14.57-12.25 19.61z" transform="translate(-1.5 -17.73)"/><circle cx="148.85" cy="132.37" r="25.83"/></g></svg>