<?xml version="1.0" encoding="utf-8"?>
<!-- Generator: Adobe Illustrator 25.2.0, SVG Export Plug-In . SVG Version: 6.00 Build 0)  -->
<svg version="1.1" id="Layer_1" xmlns="http://www.w3.org/2000/svg" xmlns:xlink="http://www.w3.org/1999/xlink" x="0px" y="0px"
	 viewBox="0 0 297.5 266.9" style="enable-background:new 0 0 297.5 266.9;" xml:space="preserve">
<style type="text/css">
	.st0{fill:#FFFFFF;stroke:#000000;stroke-width:2;stroke-miterlimit:10;}
</style>
<g>
	<path class="st0" d="M285.8,108.9c-15-10.7-28.2-17.6-45.8-23.1l-2.1-0.7c2.8-19.5,4.6-39.2,1.5-55C237,17.6,229.4,6,217.1,2.5
		s-25.6-0.1-36.6,6.2s-20.2,16.4-29.2,25.4l-0.3-0.3c-16.2-11.5-27.1-20.8-44.6-30.3c-11.1-6-30.3-2.5-39,6.7S57.5,29.4,57.7,42
		s1.6,28.1,5.1,40.3c-1.2,0.9-2.7,1.6-4.2,2C42.3,90.7,26.6,99,12,108.8c-10.3,7-13.7,21.5-10.1,33.4s13.2,21.3,24,27.4
		s23,9.4,35,12.6c-3.1,18.5-4.1,37.4-2.9,56.1c0.8,12.8,11.9,23.4,24.4,26.3s25.8-0.8,36.8-7.4c11-6.6,21.5-16.8,30.4-25.9l-0.2,0.3
		c9.1,9,19.3,19.5,30.5,25.8c11.2,6.3,25.5,11.5,37.9,8s20.1-16.9,21.7-29.5c2.2-17.4-0.7-35-1.1-52.6c10.7-3.8,22.8-7.2,33.5-13.5
		s20-15.7,23.6-27.5S295.8,116,285.8,108.9L285.8,108.9z M160.8,42c6-4.8,20.3-16.2,26-20.5c18.8-14.4,29.1-8.3,29.1-8.3
		c7.4,3.2,9.9,12.4,11.5,20.1c2,9.6-2.2,34.7-3.8,43.5c-0.3,1.8-2,3-3.8,2.8L186,75.2c-0.8-0.1-1.6-0.5-2.1-1.2l-23.5-27.2
		C159.2,45.5,159.3,43.3,160.8,42C160.8,42.1,160.8,42.1,160.8,42L160.8,42z M88.3,150.1l15.4,26.7c0.1,0.2,0,0.4-0.2,0.5
		c-0.1,0-0.1,0-0.2,0l-27-2.2c-0.2,0-0.4-0.2-0.3-0.4c0,0,0-0.1,0-0.1l11.6-24.5c0.1-0.2,0.3-0.3,0.5-0.2
		C88.2,150,88.3,150,88.3,150.1z M76.6,91.9c-0.1-0.2,0-0.4,0.2-0.5c0,0,0.1,0,0.1,0l27-2.2c0.2,0,0.4,0.1,0.4,0.4
		c0,0.1,0,0.1,0,0.2l-15.4,26.7c-0.1,0.2-0.3,0.3-0.5,0.2c-0.1,0-0.1-0.1-0.2-0.2L76.6,91.9z M93.8,133.3l27.6-47.8h55.2l27.6,47.8
		l-27.6,47.8h-55.2L93.8,133.3z M194.1,176.4l15.4-26.7c0.1-0.2,0.3-0.3,0.5-0.2c0.1,0,0.1,0.1,0.2,0.2l11.6,24.5
		c0.1,0.2,0,0.4-0.2,0.5c0,0-0.1,0-0.1,0l-27,2.2c-0.2,0-0.4-0.2-0.4-0.4C194.1,176.5,194.1,176.5,194.1,176.4L194.1,176.4z
		 M209.8,116.1c-0.1,0.2-0.3,0.3-0.5,0.2c-0.1,0-0.1-0.1-0.2-0.2l-15.4-26.7c-0.1-0.2,0-0.4,0.1-0.5c0.1,0,0.1-0.1,0.2-0.1l27,2.2
		c0.2,0,0.4,0.2,0.3,0.4c0,0,0,0.1,0,0.1L209.8,116.1z M149.3,49.5l15.4,22.3c0.1,0.2,0.1,0.4-0.1,0.5c-0.1,0-0.1,0.1-0.2,0.1h-30.9
		c-0.2,0-0.4-0.2-0.4-0.4c0-0.1,0-0.1,0.1-0.2l15.4-22.3c0.1-0.2,0.3-0.2,0.5-0.1C149.2,49.4,149.2,49.5,149.3,49.5L149.3,49.5z
		 M79.3,14.4c6.6-4.5,15.7-1.8,23.1,1c9.1,3.5,28.1,20.4,34.8,26.5c1.3,1.2,1.5,3.3,0.3,4.7l-21.8,26.3c-0.5,0.6-1.3,1.1-2.1,1.2
		l-35.5,5.3c-1.8,0.3-3.6-1-3.8-2.8c0-0.1,0-0.1,0-0.2c-0.8-7.7-2.8-25.8-3.5-32.9C68.7,19.9,79.3,14.5,79.3,14.4L79.3,14.4z
		 M65.8,167.7c-0.7,1.7-2.7,2.6-4.4,1.9c0,0-0.1,0-0.1,0c-7.1-3.1-23.8-10.5-30.2-13.5c-21.5-10-20.9-21.9-20.9-21.9
		c-0.6-8,6.4-14.5,12.5-19.5c7.6-6.2,31.7-14.1,40.3-16.8c1.7-0.5,3.6,0.4,4.2,2.1l11.8,32c0.3,0.8,0.3,1.6,0,2.4L65.8,167.7z
		 M136,227.4c-6.3,4.4-21.2,15-27.1,18.9c-19.6,13.2-29.5,6.6-29.5,6.6c-7.2-3.6-9.2-12.9-10.3-20.7c-1.4-9.7,4.3-34.5,6.4-43.2
		c0.4-1.8,2.1-2.9,3.9-2.5l33.6,6.4c0.8,0.2,1.6,0.6,2.1,1.3l21.8,28.5C137.8,224.1,137.5,226.2,136,227.4
		C136,227.4,136,227.4,136,227.4L136,227.4z M149.4,216.7c-0.1,0.2-0.4,0.2-0.5,0.1c0,0-0.1-0.1-0.1-0.1l-15.4-22.3
		c-0.1-0.2-0.1-0.4,0.1-0.5c0.1,0,0.1-0.1,0.2-0.1h30.9c0.2,0,0.4,0.2,0.4,0.4c0,0.1,0,0.2-0.1,0.2L149.4,216.7z M219.9,253.4
		c-6.6,4.5-15.8,1.8-23.1-1c-9.1-3.5-28.1-20.4-34.8-26.5c-1.3-1.2-1.5-3.3-0.3-4.6l21.8-26.3c0.5-0.6,1.3-1.1,2.1-1.2l35.5-5.3
		c1.8-0.3,3.6,1,3.8,2.8c0,0.1,0,0.1,0,0.2c0.9,7.7,2.8,25.8,3.5,32.9C230.5,247.9,219.9,253.4,219.9,253.4L219.9,253.4z
		 M275.8,151.2c-7.5,6.2-31.6,14.4-40.2,17.2c-1.7,0.6-3.6-0.3-4.2-2l-12.1-32c-0.3-0.8-0.3-1.6,0-2.4l12.9-33.5
		c0.7-1.8,2.6-2.6,4.4-1.9c0,0,0.1,0,0.1,0c7.1,3,23.9,10.3,30.3,13.2c21.5,9.8,21,21.7,21,21.7
		C288.8,139.5,281.9,146.1,275.8,151.2L275.8,151.2z"/>
	<circle class="st0" cx="148.9" cy="132.4" r="25.8"/>
</g>
</svg>
