<svg id="Layer_1" data-name="Layer 1" xmlns="http://www.w3.org/2000/svg" viewBox="0 0 177.84 295"><defs><style>.cls-1{fill:#fff;stroke:#000;stroke-miterlimit:10;}</style></defs><path class="cls-1" d="M224.65,3H77A14.57,14.57,0,0,0,62.38,17.57V282.43A14.57,14.57,0,0,0,77,297H224.65a14.57,14.57,0,0,0,14.58-14.57V17.57A14.57,14.57,0,0,0,224.65,3ZM151.17,285.81a12.16,12.16,0,1,1,12.16-12.16A12.15,12.15,0,0,1,151.17,285.81ZM229.28,236a14.58,14.58,0,0,1-14.58,14.58H86.9A14.58,14.58,0,0,1,72.33,236V24.21A14.58,14.58,0,0,1,86.9,9.63H214.7a14.58,14.58,0,0,1,14.58,14.58Z" transform="translate(-61.88 -2.5)"/></svg>