<?xml version="1.0" encoding="utf-8"?>
<!-- Generator: Adobe Illustrator 25.2.0, SVG Export Plug-In . SVG Version: 6.00 Build 0)  -->
<svg version="1.1" id="Layer_1" xmlns="http://www.w3.org/2000/svg" xmlns:xlink="http://www.w3.org/1999/xlink" x="0px" y="0px"
	 viewBox="0 0 177.8 295" style="enable-background:new 0 0 177.8 295;" xml:space="preserve">
<style type="text/css">
	.st0{fill:#FFFFFF;stroke:#000000;stroke-width:2;stroke-miterlimit:10;}
</style>
<path class="st0" d="M162.8,0.5H15.1C7.1,0.5,0.5,7,0.5,15c0,0,0,0,0,0.1v264.9c0,8,6.5,14.6,14.6,14.6c0,0,0,0,0.1,0h147.6
	c8,0,14.6-6.5,14.6-14.6c0,0,0,0,0,0V15.1C177.3,7,170.8,0.5,162.8,0.5C162.8,0.5,162.8,0.5,162.8,0.5z M89.3,283.3
	c-6.7,0-12.2-5.4-12.2-12.2c0-6.7,5.4-12.2,12.2-12.2c6.7,0,12.2,5.4,12.2,12.2C101.5,277.9,96,283.3,89.3,283.3
	C89.3,283.3,89.3,283.3,89.3,283.3z M167.4,233.5c0,8.1-6.5,14.6-14.6,14.6l0,0H25c-8,0-14.6-6.5-14.6-14.6V21.7
	c0-8,6.5-14.6,14.6-14.6h127.8c8.1,0,14.6,6.5,14.6,14.6l0,0V233.5z"/>
</svg>
