<svg viewBox="0 0 177.84 295" xmlns="http://www.w3.org/2000/svg"><path d="m224.65 3h-147.65a14.57 14.57 0 0 0 -14.62 14.57v264.86a14.57 14.57 0 0 0 14.62 14.57h147.65a14.57 14.57 0 0 0 14.58-14.57v-264.86a14.57 14.57 0 0 0 -14.58-14.57zm-73.48 282.81a12.16 12.16 0 1 1 12.16-12.16 12.15 12.15 0 0 1 -12.16 12.16zm78.11-49.81a14.58 14.58 0 0 1 -14.58 14.58h-127.8a14.58 14.58 0 0 1 -14.57-14.58v-211.79a14.58 14.58 0 0 1 14.57-14.58h127.8a14.58 14.58 0 0 1 14.58 14.58z" fill="#fff" stroke="#000" stroke-miterlimit="10" transform="translate(-61.88 -2.5)"/></svg>