<svg viewBox="0 0 296.78 223.13" xmlns="http://www.w3.org/2000/svg"><path d="m296.78 186.94c-5.51-11.6-16.21-20.31-28.85-22.58s-25.61.24-38.11 3.18c-6-9.72-8.22-23.26-5.13-35.55-3.58-5.79-12.82-5.77-14.35-1.42-4.49 12.81-3.86 12.24-7.29 18.37-4.57 8.16-10.21 17-14 24.48-4.39-3.66-5.36-14.74-4.71-20.41s3.38-11.94 1.51-13.61c-4.86-4.37-13.73-4.1-16.39 2l-29.65 65.91a.51.51 0 0 1 -1-.25c1-13.76 5.12-25.65 6-39.4 1-4.75-9.68 3-8.47-1.64 4-15.53-7.88-17-12.68-16.29-9.6 1.32-17.23 8.42-24.27 15.08s-19.05 15.81-28.71 16.62c-12.48-8.8-22.34-19.23-33.07-28.57-14.06-12.22-15.86-34.31-3.93-48.61 29-34.79 75.15-54.52 120.33-51.46a20.13 20.13 0 0 1 17.67 26.74 69 69 0 0 1 -98.08 38.55 1.4 1.4 0 0 0 -2 1.7l3.19 4.6c7 9.89 34 17.61 54.81 10.45 19.7-6.75 34.9-18.66 49.52-33.63 12.23-12.53 14.07-34.79 3.59-48.82s-27.06-17.28-44.36-16.86c-17 .42-33.92 6.11-50.16 11.25-17 5.37-31.39 13.11-45.51 23.23-21.08 15.11-47.63 37.43-38.68 61.76 8.74 23.76 35.14 44.68 57.1 55.51-23 13.91-39.85 18.84-48 40.07-2.25 5.88-.15 17.73 3.62 22.77s11.71 7.95 18 7.45c16-1.28 28.28-8.81 37.09-22.26a53.83 53.83 0 0 0 5.79-46.23l15.8-9.66a64 64 0 0 0 .32 43.84 10.2 10.2 0 0 0 13.28 5.92c5-2 8.14-6.77 10.42-11.57 2-4.18 4.75-10.16 7.56-14.27a.39.39 0 0 1 .72.25c-.52 5.38-1.45 23.39 9.93 20.18a13.59 13.59 0 0 0 7.47-5.5 199.77 199.77 0 0 0 26.53-56.26.56.56 0 0 1 1-.19c5.61 7.7 10.65 19.7 6.58 28.63-4.31 9.44-7.91 16-17.59 21.09a5.64 5.64 0 0 0 -.56 9.65c9 5.85 19.78-1.48 28-8.49 9.36-8 6.4-22 8.44-32.65s7.89-18.28 14.88-26.35a.23.23 0 0 1 .38.07l8.47 23.83c-11 7.21-23.2 30.35-11.71 33 8.4 1.94 13.66-.82 21.46-7.76 7.55-6.72 8.13-19.34 3.55-28.36 10.83-1.34 21.21-3.34 31.45-1.87s23.55 5.8 26.47 15.73 1.3 11.71-4.75 21.63c-7.92 12.9 18.13-8.18 11.08-23.02zm-251.36 54.6a11 11 0 0 1 -14.21-15.84 88.57 88.57 0 0 1 36.41-31.7c.89-.42 2.85 1.39 3 3.42 1.14 17.9-9.2 36.02-25.2 44.12zm83.67-78.12c-3.35 14-8.15 33.37-17.57 48.32a3.62 3.62 0 0 1 -6.64-1.38 57.14 57.14 0 0 1 19-51.15 3.53 3.53 0 0 1 4.37-.07c1.18.99 1.2 2.75.84 4.28zm51.66 43.22a20.87 20.87 0 0 1 -11.22 6.66c-.39.09 1.11-5.22 3.25-6.38a24.14 24.14 0 0 0 11.08-12.75 1 1 0 0 1 1.88.41 20.81 20.81 0 0 1 -4.99 12.06zm41.62-11.16a18.13 18.13 0 0 1 -9.13 7.65 1.48 1.48 0 0 1 -2-1.51 25.21 25.21 0 0 1 10.76-18.62 1.49 1.49 0 0 1 2.28.84 15.68 15.68 0 0 1 -1.91 11.64z" fill="#fff" stroke="#000" stroke-miterlimit="10" transform="translate(-1.72 -34.99)"/></svg>