<?xml version="1.0" encoding="utf-8"?>
<!-- Generator: Adobe Illustrator 25.2.0, SVG Export Plug-In . SVG Version: 6.00 Build 0)  -->
<svg version="1.1" id="Layer_1" xmlns="http://www.w3.org/2000/svg" xmlns:xlink="http://www.w3.org/1999/xlink" x="0px" y="0px"
	 viewBox="0 0 296.8 223.1" style="enable-background:new 0 0 296.8 223.1;" xml:space="preserve">
<style type="text/css">
	.st0{fill:#FFFFFF;stroke:#000000;stroke-width:2;stroke-miterlimit:10;}
</style>
<path class="st0" d="M295.1,151.9c-5.5-11.6-16.2-20.3-28.9-22.6s-25.6,0.2-38.1,3.2c-6-9.7-8.2-23.3-5.1-35.6
	c-3.6-5.8-12.8-5.8-14.4-1.4c-4.5,12.8-3.9,12.2-7.3,18.4c-4.6,8.2-10.2,17-14,24.5c-4.4-3.7-5.4-14.7-4.7-20.4s3.4-11.9,1.5-13.6
	c-4.9-4.4-13.7-4.1-16.4,2l-29.6,65.9c-0.1,0.3-0.3,0.4-0.6,0.4s-0.4-0.3-0.4-0.6l0,0c1-13.8,5.1-25.6,6-39.4c1-4.8-9.7,3-8.5-1.6
	c4-15.5-7.9-17-12.7-16.3c-9.6,1.3-17.2,8.4-24.3,15.1S78.6,145.6,69,146.4c-12.5-8.8-22.3-19.2-33.1-28.6
	C21.8,105.6,20,83.6,32,69.3c29-34.8,75.2-54.5,120.3-51.5c11.1,0.7,19.5,10.3,18.8,21.4c-0.1,1.8-0.5,3.6-1.1,5.3
	c-12.3,36.1-51.4,55.4-87.5,43.2c-3.6-1.2-7.2-2.8-10.6-4.6c-0.7-0.4-1.5-0.1-1.9,0.5c-0.2,0.4-0.2,0.8-0.1,1.2l3.2,4.6
	c7,9.9,34,17.6,54.8,10.4c19.7-6.8,34.9-18.7,49.5-33.6c12.2-12.5,14.1-34.8,3.6-48.8S153.9,0.1,136.6,0.5
	c-17,0.4-33.9,6.1-50.2,11.2C69.5,17.1,55.1,24.9,41,35C19.9,50.1-6.7,72.4,2.3,96.8c8.7,23.8,35.1,44.7,57.1,55.5
	c-23,13.9-39.8,18.8-48,40.1c-2.2,5.9-0.1,17.7,3.6,22.8s11.7,7.9,18,7.4c16-1.3,28.3-8.8,37.1-22.3c8.8-13.7,11-30.7,5.8-46.2
	l15.8-9.7c-5.1,14.2-4.9,29.7,0.3,43.8c2,5.3,7.9,8,13.1,6c0.1,0,0.1,0,0.2-0.1c5-2,8.1-6.8,10.4-11.6c2-4.2,4.8-10.2,7.6-14.3
	c0.1-0.2,0.4-0.2,0.5-0.1c0.1,0.1,0.2,0.2,0.2,0.4c-0.5,5.4-1.4,23.4,9.9,20.2c3.1-0.9,5.7-2.8,7.5-5.5
	c11.7-17.3,20.7-36.2,26.5-56.3c0.1-0.3,0.4-0.5,0.7-0.4c0.1,0,0.2,0.1,0.3,0.2c5.6,7.7,10.6,19.7,6.6,28.6
	c-4.3,9.4-7.9,16-17.6,21.1c-2.8,1.4-3.8,4.9-2.4,7.6c0.4,0.8,1.1,1.5,1.8,2c9,5.9,19.8-1.5,28-8.5c9.4-8,6.4-22,8.4-32.6
	s7.9-18.3,14.9-26.4c0.1-0.1,0.2-0.1,0.3,0c0,0,0,0,0.1,0.1l8.5,23.8c-11,7.2-23.2,30.4-11.7,33c8.4,1.9,13.7-0.8,21.5-7.8
	c7.6-6.7,8.1-19.3,3.6-28.4c10.8-1.3,21.2-3.3,31.4-1.9s23.5,5.8,26.5,15.7S290,165,284,175C276.1,187.9,302.1,166.8,295.1,151.9
	L295.1,151.9z M43.7,206.6c-5.4,2.8-12,0.6-14.8-4.8c-1.8-3.5-1.6-7.8,0.6-11.1c9-13.7,21.6-24.7,36.4-31.7c0.9-0.4,2.8,1.4,3,3.4
	C70,180.3,59.7,198.5,43.7,206.6z M127.4,128.4c-3.3,14-8.2,33.4-17.6,48.3c-1.1,1.7-3.3,2.2-5,1.1c-0.9-0.6-1.5-1.5-1.6-2.5
	c-2.7-19.2,4.4-38.4,19-51.1c1.3-1,3.1-1.1,4.4-0.1C127.7,125.1,127.7,126.9,127.4,128.4z M179,171.7c-2.9,3.4-6.9,5.7-11.2,6.7
	c-0.4,0.1,1.1-5.2,3.2-6.4c5.1-2.8,9-7.3,11.1-12.8c0.3-0.5,0.9-0.7,1.4-0.4c0.3,0.2,0.5,0.5,0.5,0.8
	C183.7,164,181.9,168.3,179,171.7z M220.6,160.5c-2.1,3.5-5.3,6.2-9.1,7.6c-0.8,0.3-1.6-0.1-1.9-0.9c-0.1-0.2-0.1-0.4-0.1-0.7
	c0.6-7.5,4.6-14.3,10.8-18.6c0.7-0.5,1.6-0.3,2.1,0.4c0.1,0.1,0.2,0.3,0.2,0.5C223.5,152.8,222.8,157,220.6,160.5L220.6,160.5z"/>
</svg>
