<svg viewBox="0 0 289.68 289.68" xmlns="http://www.w3.org/2000/svg"><g fill="#fff" stroke="#000" stroke-miterlimit="10"><path d="m211.64 143.67.01.96z"/><g transform="translate(-4.97 -2.5)"><path d="m203.82 146.66c-14.51.41-24.45 9.79-24.45 24.26s9.81 24.4 24.28 25.38a87.2 87.2 0 0 0 13.12.06l-.21-49.23a83.48 83.48 0 0 0 -12.74-.47z"/><path d="m5.47 3v288.68h288.67v-288.68zm126 209.5-22-47-23 47h-28l37-70-36-67h29l21 45 21-45h28l-35 66 37 71zm106.78.25-17 .17h-7.1c-7 0-10.77-.14-19.81-.77-18.63-1.29-32.7-17.44-32.7-41s15.21-40.91 33.82-42.6c9.6-.87 16.94-.94 22.51-.35v-53h20.28z"/></g></g></svg>