<?xml version="1.0" encoding="utf-8"?>
<!-- Generator: Adobe Illustrator 25.2.0, SVG Export Plug-In . SVG Version: 6.00 Build 0)  -->
<svg version="1.1" id="Layer_1" xmlns="http://www.w3.org/2000/svg" xmlns:xlink="http://www.w3.org/1999/xlink" x="0px" y="0px"
	 viewBox="0 0 289.7 289.7" style="enable-background:new 0 0 289.7 289.7;" xml:space="preserve">
<style type="text/css">
	.st0{fill:#FFFFFF;stroke:#000000;stroke-width:2;stroke-miterlimit:10;}
</style>
<g>
	<path class="st0" d="M211.6,143.7v1V143.7z"/>
	<g transform="translate(-4.97 -2.5)">
		<path class="st0" d="M203.8,146.7c-14.5,0.4-24.4,9.8-24.4,24.3s9.8,24.4,24.3,25.4c4.4,0.3,8.8,0.4,13.1,0.1l-0.2-49.2
			C212.3,146.6,208.1,146.5,203.8,146.7L203.8,146.7z"/>
		<path class="st0" d="M5.5,3v288.7h288.7V3H5.5z M131.5,212.5l-22-47l-23,47h-28l37-70l-36-67h29l21,45l21-45h28l-35,66l37,71
			H131.5z M238.2,212.8l-17,0.2h-7.1c-7,0-10.8-0.1-19.8-0.8c-18.6-1.3-32.7-17.4-32.7-41s15.2-40.9,33.8-42.6
			c9.6-0.9,16.9-0.9,22.5-0.4v-53h20.3V212.8z"/>
	</g>
</g>
</svg>
