<svg id="Layer_1" data-name="Layer 1" xmlns="http://www.w3.org/2000/svg" viewBox="0 0 66.42 248.31"><defs><style>.cls-1,.cls-2,.cls-3,.cls-5,.cls-6,.cls-7,.cls-8{fill:none;}.cls-1,.cls-2,.cls-3,.cls-5,.cls-6{stroke:#000;}.cls-1,.cls-2,.cls-5,.cls-6,.cls-8{stroke-miterlimit:10;}.cls-2{stroke-width:0.2px;}.cls-3,.cls-7{stroke-linecap:round;stroke-linejoin:round;stroke-width:0;}.cls-4{fill:#fff;}.cls-5{stroke-width:0.5px;}.cls-6,.cls-8{stroke-width:0.1px;}.cls-7,.cls-8{stroke:#fff;}</style></defs><path class="cls-1" d="M693.32,280.73s2.84-2.89,1.38-4.51c0,0-3.87-4.76-12.44-4.72,0,0-7.25-.43-12,4.64,0,0-2,2.77.93,5.57" transform="translate(-649.89 -259.04)"/><path class="cls-2" d="M693,268l.56,7.09Z" transform="translate(-649.89 -259.04)"/><path class="cls-2" d="M682.74,261.81l10.33,5.87Z" transform="translate(-649.89 -259.04)"/><path class="cls-2" d="M672.68,264.39l10.41-2.54Z" transform="translate(-649.89 -259.04)"/><path class="cls-2" d="M671.2,275.32s.28-6.58.28-8.71" transform="translate(-649.89 -259.04)"/><path class="cls-3" d="M693.08,267.6h0" transform="translate(-649.89 -259.04)"/><path d="M693.6,267.68a.5.5,0,0,0,0-.21.53.53,0,0,0,0-.12l-.08-.25-.13-.25-.16-.23a1.28,1.28,0,0,0-.26-.26.87.87,0,0,0-.18-.11.49.49,0,0,0-.17-.06.2.2,0,0,0-.15,0,.19.19,0,0,0-.17.13.57.57,0,0,0-.07.36c0,.09,0,.18,0,.26s0,0,0,.07a3.18,3.18,0,0,0,.25.57,3,3,0,0,0,.2.29,1.45,1.45,0,0,0,.21.22,1,1,0,0,0,.27.17.19.19,0,0,0,.18,0,.15.15,0,0,0,.13-.09.77.77,0,0,0,0-.15h0v0s0,0,0-.05l0-.08v0l0,0A.25.25,0,0,0,693.6,267.68Z" transform="translate(-649.89 -259.04)"/><path class="cls-3" d="M690.81,267.91s0,0,0,0" transform="translate(-649.89 -259.04)"/><path class="cls-3" d="M692.72,274.36s0,0,0,0" transform="translate(-649.89 -259.04)"/><path class="cls-1" d="M661,487.44c7.72-7.91,14-10.19,22.47-9.86s14,1.45,21.28,9.58" transform="translate(-649.89 -259.04)"/><path class="cls-1" d="M663.37,493.05a36.29,36.29,0,0,0,34.93,1.78" transform="translate(-649.89 -259.04)"/><path class="cls-1" d="M693.22,478.91c9.77.73,20.38,2.89,21.39,9.75" transform="translate(-649.89 -259.04)"/><path class="cls-1" d="M653,491.56c-.09-1.43,1.5-4.81,6.18-7.77a34.64,34.64,0,0,1,13.15-4.56" transform="translate(-649.89 -259.04)"/><path class="cls-4" d="M677.54,264.08l0-.11s.1.09.09.08S677.51,264,677.54,264.08Z" transform="translate(-649.89 -259.04)"/><path class="cls-4" d="M677.49,264l0,0a.3.3,0,0,1,0-.08Z" transform="translate(-649.89 -259.04)"/><path class="cls-4" d="M694.2,268.88a5.82,5.82,0,0,0-.05-.6V268a10.22,10.22,0,0,0-.41-3,5.63,5.63,0,0,0-.47-1c-.16-.27-.4-.78-.69-.92,0,0,0,.11-.06.27,0,0-.06-.09-.11-.11h-.07a1.5,1.5,0,0,0-.15-.38l-.18-.24c-.14-.18-.15-.19-.34-.06,0,0,0,0,0,.05A3.4,3.4,0,0,0,691,262c0-.14,0-.3-.1-.31-.22,0-.44-.09-.65-.15a2.47,2.47,0,0,0-.71-.35,1.29,1.29,0,0,0-.62-.22l-.18-.08a3.76,3.76,0,0,0-1.05-.41s0,.07-.07.17a1.93,1.93,0,0,0-.28-.22,2.86,2.86,0,0,0-.41-.15c-.15-.06-.29-.15-.44-.21a10.24,10.24,0,0,0-1.84-.3,10.52,10.52,0,0,0-1.94-.17,1.85,1.85,0,0,0-.57.15,1.21,1.21,0,0,0-.3-.2,1.29,1.29,0,0,0-.33,0,.53.53,0,0,0-.18.05h0l0,0a.8.8,0,0,0-.53,0l-.19.1h0a.69.69,0,0,0-.49,0c-.12.08-.82.19-.84.34s.76.29.76.38,0-.08,0-.05a1.48,1.48,0,0,0-1.27-.26,2.16,2.16,0,0,0-.73.44h0a3.45,3.45,0,0,0-1.54.36,9.4,9.4,0,0,1-1,.58l-.42.17a3.7,3.7,0,0,0-.54.24,1.39,1.39,0,0,0-.52.61,1.1,1.1,0,0,0-.61.12,2.07,2.07,0,0,0-.83.83s0,.11,0,.16a6.55,6.55,0,0,0-.59.45,1.89,1.89,0,0,0-.38.62.36.36,0,0,0-.2.22,5,5,0,0,0-.2.54c-.11.34-.2.68-.28,1a14.67,14.67,0,0,0-.33,2.81c0,.35,0,.7,0,1.06,0,0,.08.48.09.47s.18,0,.26.08a1.94,1.94,0,0,0,0,.24.57.57,0,0,0,0,.13s0,.08,0,.12a3.87,3.87,0,0,0,0,.48,7.23,7.23,0,0,0,0,1,2.32,2.32,0,0,0,.06.38c0,.05,0,.05.05,0a.83.83,0,0,0,0-.15s.06,0,.09,0l.11-.05h.07s0,0,0,0l0,0s0,.05.05,0a.47.47,0,0,0,0-.16,4.55,4.55,0,0,0,0-.52c0-.28,0-.55,0-.83s0-.29,0-.44a1.18,1.18,0,0,0,0-.2s0-.07-.05-.08,0,0,0,0l0,0a.23.23,0,0,0,.06-.16l.18-1.31v-.07a.69.69,0,0,1,.2,0l0,0s0-.06,0-.08a2.7,2.7,0,0,0,.29-.4s0,.08,0,.12l0,0c.32-.22.28-.73.29-1.06s0-.36,0-.54a1.52,1.52,0,0,0,.66.3,1.29,1.29,0,0,0,1-.27,1,1,0,0,0,.35-.38,1.33,1.33,0,0,0,.18-.68s0-.09,0-.14.06-.24.09-.36a1.53,1.53,0,0,0,.22.16,1.47,1.47,0,0,0,1.63-.11,1.34,1.34,0,0,0,.53-.77.75.75,0,0,1,.05-.16c.09-.17,0-.34.15-.51s.26-.24.33-.35l.09-.21.06.12c0-.05-.16-.09-.18-.14h.13c0,.08.07.15.1.22h0c0,.08-.19.41-.15.48.16.23.58.18.83.32a1.11,1.11,0,0,0,.19.09,1.31,1.31,0,0,0,.19.07h0l.35,0,.22,0a1.21,1.21,0,0,0,.55-.19l.11-.08s0,0,0,0a.28.28,0,0,0,.22,0,.47.47,0,0,0,.2-.17,2.25,2.25,0,0,0,.12-.21l.06-.05,0,0h0c.09,0,.15-.09.19-.16l0,0a.74.74,0,0,1,.19-.15l.19-.13a.3.3,0,0,0,0-.1l0-.23v-.11l.09-.06s0,.09,0,.13,0,.14,0,.21a.28.28,0,0,0,.06.18l.12-.08c0,.42.08.82.58.88s.9-.1,1.35,0a1.28,1.28,0,0,0,1.06-.24c.19-.18-.2-.69.09-.7a1.84,1.84,0,0,0,2.06,1.43,2.53,2.53,0,0,0,.9-.41c.18-.11.37-.19.46-.41,0,0,0-.05,0-.08a5,5,0,0,0,.41,1c.18.31.39.77.8.71a2.31,2.31,0,0,0,1.32-.53c0,.13,0,.26,0,.39.05.43.07,1.13.49,1.4a.79.79,0,0,0,.64,0c.23-.07.31.27.36.06-.35.6-.07.51.08.94a1.37,1.37,0,0,0,.84.93.67.67,0,0,0,.25,0c.11.39-.16.91,0,1.3a11,11,0,0,0,.13,1.14.75.75,0,0,0,.48.6v0s.05.07.09.06c.28,0-.1-.71-.09-.88a9.24,9.24,0,0,0-.09-1.66C693.83,269.58,694.32,269.12,694.2,268.88Z" transform="translate(-649.89 -259.04)"/><path class="cls-4" d="M677.39,263.6a3,3,0,0,0,.46.75l-.16-.2" transform="translate(-649.89 -259.04)"/><path class="cls-4" d="M677.63,264.1a.19.19,0,0,1-.21.16.19.19,0,0,1-.17-.2" transform="translate(-649.89 -259.04)"/><path class="cls-4" d="M677.47,264.24a.19.19,0,0,0,.17.25.29.29,0,0,0,.27-.2.63.63,0,0,0,0-.36,2,2,0,0,1-.06-.35.35.35,0,0,0-.35-.33.45.45,0,0,0-.41.3.6.6,0,0,0,.07.52C677.25,264.23,677.39,264.34,677.47,264.24Z" transform="translate(-649.89 -259.04)"/><path class="cls-4" d="M677.86,261.09a.26.26,0,0,1-.38-.22.69.69,0,0,1,.3-.56.5.5,0,0,1,.6.05.4.4,0,0,1,0,.58C678.12,261.08,677.91,261.22,677.86,261.09Z" transform="translate(-649.89 -259.04)"/><path class="cls-4" d="M688.61,263.34a.47.47,0,0,0-.56.17.77.77,0,0,0-.11.61,2.49,2.49,0,0,0,.23.59,2.15,2.15,0,0,1,.24.59.48.48,0,0,0,.51.36.47.47,0,0,0,.4-.48c0-.28,0-.55,0-.83a1.3,1.3,0,0,0-.26-.77C688.9,263.36,688.59,263.25,688.61,263.34Z" transform="translate(-649.89 -259.04)"/><path class="cls-4" d="M692,265.87a1.79,1.79,0,0,0,.75,2.45.27.27,0,0,0,.32-.06.6.6,0,0,0,.17-.3,2.19,2.19,0,0,0-.59-2.25.57.57,0,0,0-.53-.13C691.92,265.63,691.77,265.78,692,265.87Z" transform="translate(-649.89 -259.04)"/><path class="cls-4" d="M674.34,263.19a.51.51,0,0,1-.5.7.72.72,0,0,1-.61-.73,1.23,1.23,0,0,1,.48-.9c.28-.23.74,0,.85.35S674.58,263.32,674.34,263.19Z" transform="translate(-649.89 -259.04)"/><path class="cls-4" d="M670.86,271.3a.58.58,0,0,0-.47.53,1.47,1.47,0,0,0,.18.74.18.18,0,0,0,.29,0A1.11,1.11,0,0,0,670.86,271.3Z" transform="translate(-649.89 -259.04)"/><path class="cls-1" d="M671.47,298c-1,27.79-2.59,36.06-7.23,46.87-9.63,22.46-11.8,34.75-11.8,34.75s-2.52,8.63-2,43.64c.49,32.25,1.15,55.52,1.15,59,0,.34,0,.65,0,1,.22,2.45.68,11.57,4.79,15.1a30,30,0,0,0,14,7c15.36,3.27,25.31.66,30.16-1.26,6.39-2.54,13.91-8.41,14-15.43l1.11-87.4a88.83,88.83,0,0,0-1.63-19.75,164.86,164.86,0,0,0-7.74-22.21c-1.12-2.36-8.65-24.44-10.37-38-.12-.95-2.18-18.76-2.38-25.05-.31-9.89-.33-17.89-.33-17.89s-2.48-4.61-10.37-4.59c-9.06,0-11.9,5.34-11.9,5.34S671.81,288.94,671.47,298Z" transform="translate(-649.89 -259.04)"/><path class="cls-2" d="M671.12,272.94" transform="translate(-649.89 -259.04)"/><path class="cls-5" d="M693.42,272.65l.59-.46a.76.76,0,0,1-.62-.56.53.53,0,0,1,0-.35c.23-.46.65-.23.77-.52a1.16,1.16,0,0,1-.79-.26.8.8,0,0,1-.09-.9,3.73,3.73,0,0,1,.62-.73c-.18,0-.49.19-.68.23-.47.09-.83-.33-1.08-.74s-.3-.91-.55-1.23a.74.74,0,0,1-1-.35,1.91,1.91,0,0,1-.05-1.23,1.54,1.54,0,0,1-1.72.37,1.56,1.56,0,0,1-.89-1.52,2.77,2.77,0,0,1-1.31.77,1.48,1.48,0,0,1-.66,0c-.6-.13-.92-.76-1.15-1.32a1.93,1.93,0,0,1-1.57.91,2.48,2.48,0,0,1-1.3-.11,1.28,1.28,0,0,1-.81-1,2.34,2.34,0,0,1-4,.46c-.18.81-.3,1.71-1.11,2a1.53,1.53,0,0,1-.82.07,2.34,2.34,0,0,1-.9-.49c0,.92,0,1.37-.53,1.69a1.14,1.14,0,0,1-1.59-.31,1.75,1.75,0,0,1-.08,1.43c-.3.54-.82.9-1.34.56.13.41.8,1,.82,1.61-.44.28-.45.38-1,.11.18.37.92.48.95,1.34,0,.15-.16.29-.18.43s-.19.57-.44.51a.74.74,0,0,1-.49-.7l.08.35a.23.23,0,0,1,0-.33" transform="translate(-649.89 -259.04)"/><path class="cls-2" d="M694,272.2c0-.43-.07-1.11,0-1.53" transform="translate(-649.89 -259.04)"/><path class="cls-2" d="M694.21,270.76c-.36-.48-.17-1.2-.2-1.82s.08-1.24.06-1.86" transform="translate(-649.89 -259.04)"/><path class="cls-2" d="M670.4,272.23a4.07,4.07,0,0,0-.15-2c.21-.65.67-1,.08-1.53" transform="translate(-649.89 -259.04)"/><path class="cls-1" d="M670.38,269s.15-3.21.92-4.29c0,0,2.93-5.05,11.37-5.12,0,0,5.55.31,8.44,2.36a7.91,7.91,0,0,1,2.25,2.57,6,6,0,0,1,.72,2.85" transform="translate(-649.89 -259.04)"/><path class="cls-6" d="M674.43,263.11c0,.69.18,1.39.65,1.5a1.12,1.12,0,0,0,1.18-.65,2.13,2.13,0,0,0,.07-1.41" transform="translate(-649.89 -259.04)"/><path class="cls-6" d="M672.21,264.8c-.17.37.24.81.64.78a1,1,0,0,0,.8-.8,2.86,2.86,0,0,0,0-1.2" transform="translate(-649.89 -259.04)"/><path class="cls-6" d="M678.23,262.46a1,1,0,0,0,1.84.75,4.6,4.6,0,0,0,.59-1.65" transform="translate(-649.89 -259.04)"/><path class="cls-6" d="M681.55,261.7a2.81,2.81,0,0,0,.06,1.08,1.23,1.23,0,0,0,.69.8.8.8,0,0,0,1-.29l.9-1.5" transform="translate(-649.89 -259.04)"/><path class="cls-6" d="M685.35,262.29a.93.93,0,0,0,0,1.4,1.29,1.29,0,0,0,1.5,0,2.16,2.16,0,0,0,.85-1.32" transform="translate(-649.89 -259.04)"/><path class="cls-6" d="M688.43,263a3.12,3.12,0,0,0-.09,1,1.13,1.13,0,0,0,.5.85.76.76,0,0,0,.9-.19,5.42,5.42,0,0,0,.86-1.18" transform="translate(-649.89 -259.04)"/><path class="cls-6" d="M691.26,264.54a1.83,1.83,0,0,1,0,.7.91.91,0,0,0,.11.67c.15.18.48.23.6,0l.67-1.12" transform="translate(-649.89 -259.04)"/><path class="cls-6" d="M693.05,266.31l-.63,1.18a.45.45,0,0,0,.33.6.74.74,0,0,0,.69-.29c.17-.21.13-.46.21-.72" transform="translate(-649.89 -259.04)"/><path class="cls-6" d="M671.69,265.56v2a.46.46,0,0,1-.61.39.45.45,0,0,1-.11-.71" transform="translate(-649.89 -259.04)"/><path class="cls-3" d="M691.81,267.22s0,0,0,0" transform="translate(-649.89 -259.04)"/><path class="cls-3" d="M691.66,267.17h0" transform="translate(-649.89 -259.04)"/><path class="cls-3" d="M691.7,267.15v0" transform="translate(-649.89 -259.04)"/><path class="cls-3" d="M692,267.08s0,0,0,0" transform="translate(-649.89 -259.04)"/><path class="cls-3" d="M692,267.13s0,0,0,0" transform="translate(-649.89 -259.04)"/><path class="cls-2" d="M693.65,271a.35.35,0,0,1-.29.09.23.23,0,0,1-.2-.2.19.19,0,0,1,.19-.2.16.16,0,0,1,.1.24Z" transform="translate(-649.89 -259.04)"/><path class="cls-4" d="M676.47,263a3,3,0,0,0,0-.67,1.62,1.62,0,0,0-.12-.43.76.76,0,0,0-.17-.32.43.43,0,0,0-.32-.17c-.12,0-.27.1-.33.17a.45.45,0,0,0-.06.12h0s0,0,0,0l-.1.16a0,0,0,0,0,0,0l0,0h0l-.09.13v0l0,0a.41.41,0,0,0-.05-.09.49.49,0,0,0-.14-.11h0l0,0-.14,0a.26.26,0,0,0-.21.09.33.33,0,0,0-.12.14,1,1,0,0,0-.14.3l-.05.25,0,.29a1.44,1.44,0,0,0,.05.41,1,1,0,0,0,.11.34.59.59,0,0,0,.25.29h0l.06.06h0l.13,0h0s0,.05,0,.06a.19.19,0,0,0,.19,0l.06,0a.12.12,0,0,0,.08,0h0l.06.05.14,0,0,0,0,0,.16,0,.05-.06,0,0h0l0,0s.06,0,.08-.05l0,0,0-.05h0l0,0h0l0,0c0-.05,0-.12.08-.17s.09-.08.11-.14l.05-.14a1.24,1.24,0,0,0,.11-.43h0c0-.11,0-.22,0-.33C676.48,262.77,676.47,262.88,676.47,263Z" transform="translate(-649.89 -259.04)"/><path class="cls-4" d="M680.86,261.34a.21.21,0,0,0-.07-.2.45.45,0,0,0-.23-.13l-.09,0-.14-.05h-.12a1.68,1.68,0,0,0-.88.15s0-.07-.07-.09a.25.25,0,0,0-.18-.08l-.12,0c-.05,0-.07.08-.11.13a.47.47,0,0,0-.14-.17.21.21,0,0,0-.2,0,.27.27,0,0,0-.18.12.88.88,0,0,0-.17.35,2.33,2.33,0,0,0-.08.59,2.15,2.15,0,0,0,.09.61,1.65,1.65,0,0,0,.18.41,2.12,2.12,0,0,0,.12.2.73.73,0,0,0,.16.14.47.47,0,0,0,.24.05h.07l.13,0h0l.07-.06.06-.06a.53.53,0,0,0,.13-.2l0-.11h.05a1.69,1.69,0,0,0,.7-.34,1.89,1.89,0,0,0,.2-.2l.07-.08.11-.18.15-.33.06-.11s0,0,0,0h0A.32.32,0,0,0,680.86,261.34Z" transform="translate(-649.89 -259.04)"/><path class="cls-4" d="M676.39,262.54a1.46,1.46,0,0,1-.43,1.56,1.12,1.12,0,0,0,.37-.86,1.26,1.26,0,0,1-.53.91,1.42,1.42,0,0,0,.57-.77l-.21.49.12-.28" transform="translate(-649.89 -259.04)"/><path class="cls-4" d="M674.47,262.83a1.55,1.55,0,0,0,.6,1.47" transform="translate(-649.89 -259.04)"/><path class="cls-4" d="M674.67,262.27a2.94,2.94,0,0,0-.2,1.2,1,1,0,0,0,.7.91" transform="translate(-649.89 -259.04)"/><path class="cls-4" d="M674.51,263.48a.78.78,0,0,0,.15.64.79.79,0,0,0,.57.32" transform="translate(-649.89 -259.04)"/><path class="cls-4" d="M675.69,264.2a1.31,1.31,0,0,0,.71-1.12" transform="translate(-649.89 -259.04)"/><path class="cls-4" d="M675.75,264.35a2,2,0,0,0,.62-2.08" transform="translate(-649.89 -259.04)"/><path class="cls-4" d="M675.54,264.35a.47.47,0,0,1-.74-.08,2.19,2.19,0,0,1-.34-1.62,1.4,1.4,0,0,0,.71,1.81" transform="translate(-649.89 -259.04)"/><path class="cls-4" d="M674.62,262.31a1.91,1.91,0,0,0,0,1.8.68.68,0,0,0,.9.24" transform="translate(-649.89 -259.04)"/><path class="cls-4" d="M671,266.79a.84.84,0,0,0,.08.8v-.09l0,.08" transform="translate(-649.89 -259.04)"/><path class="cls-4" d="M671,266.63a.91.91,0,0,0,.06,1" transform="translate(-649.89 -259.04)"/><path class="cls-4" d="M684.06,262.07a.78.78,0,0,1-.15.1l-.08.07Z" transform="translate(-649.89 -259.04)"/><polygon class="cls-4" points="31.54 1.86 31.54 1.86 31.54 1.86 31.54 1.86"/><polygon class="cls-4" points="31.54 1.85 31.54 1.86 31.54 1.86 31.54 1.85"/><polygon class="cls-4" points="31.54 1.86 31.53 1.86 31.53 1.86 31.54 1.86 31.54 1.86"/><path class="cls-4" d="M681.41,260.93v-.06A.13.13,0,0,1,681.41,260.93Z" transform="translate(-649.89 -259.04)"/><path class="cls-4" d="M684.44,261.34s0,0-.05-.07a.28.28,0,0,0-.07-.21l-.14-.1s0-.06,0-.08a.46.46,0,0,0-.07-.16.28.28,0,0,0-.06-.09.73.73,0,0,0-.37-.19,1.2,1.2,0,0,0-.38,0,1.74,1.74,0,0,0-.45.06,1.59,1.59,0,0,0-.27.12,1.13,1.13,0,0,0-.1-.13.76.76,0,0,0-.24-.18l-.15,0a.27.27,0,0,0-.25.11l-.06.13a.22.22,0,0,0-.14.06s0,0,0,.05l-.11.09a.7.7,0,0,0-.06.19h0v0h0v0l0,.07h0c0,.06,0,.11,0,.17v.08a.66.66,0,0,0,0,.14v0s0,0,0,.06h0a.09.09,0,0,1,0,.05c0,.05,0,.09,0,.14s0,0,0,.07h0c0,.1,0,.21,0,.31a2.79,2.79,0,0,0,.31.68,2,2,0,0,0,.42.5.82.82,0,0,0,.43.2.38.38,0,0,0,.34-.15s0-.05,0-.07,0,0,.07,0h0a.61.61,0,0,0,.11-.31,1,1,0,0,0,0-.17.31.31,0,0,0,0-.1,2,2,0,0,0,.52-.24h0l.06,0,0,0a.71.71,0,0,0,.14-.1,1.88,1.88,0,0,0,.23-.16l0,0,.17-.17.1-.2v-.2S684.45,261.36,684.44,261.34Z" transform="translate(-649.89 -259.04)"/><path class="cls-4" d="M686.87,262.6a.17.17,0,0,1,0-.07.33.33,0,0,0,0-.14l0-.09s0,0,0,0l-.06-.27a2.61,2.61,0,0,0-.24-.54,1.26,1.26,0,0,0-.25-.31.86.86,0,0,0-.26-.2.26.26,0,0,0-.24,0,.75.75,0,0,0-.31-.15c-.07,0-.12.05-.18.07h0a0,0,0,0,1,0,0h0l0,0s0,0,0,0l0,0a.6.6,0,0,0-.16.25,1.57,1.57,0,0,0,0,.61,2,2,0,0,0,.12.46,2.24,2.24,0,0,0,.06.52l.11.33c0,.09.09.19.14.28a.75.75,0,0,0,.26.27.26.26,0,0,0,.12.05l0,0h0s.06,0,.1,0,.08,0,.12,0a.36.36,0,0,0,.17-.13h0l.17,0h0a.29.29,0,0,1-.16,0h0s.1,0,.15,0h0a.24.24,0,0,0,.08-.06s0,0,0,0l-.12.1s0-.07.07-.1l0,0,.06-.05v0l0,0h0a.18.18,0,0,0,0-.07s.05,0,.07,0v0h0l.08-.17,0-.05s0-.1,0-.15a.77.77,0,0,0,0-.15S686.87,262.64,686.87,262.6Z" transform="translate(-649.89 -259.04)"/><polygon class="cls-4" points="36.68 4.41 36.68 4.41 36.68 4.41 36.68 4.41"/><polygon class="cls-4" points="36.34 4.57 36.33 4.57 36.33 4.57 36.34 4.57"/><path class="cls-4" d="M686.57,263.45v0l0,.05Z" transform="translate(-649.89 -259.04)"/><path class="cls-4" d="M688.13,262v0Z" transform="translate(-649.89 -259.04)"/><path class="cls-4" d="M690,263.17a2.63,2.63,0,0,0-.21-.74c0-.08-.09-.15-.13-.22l0-.07a.43.43,0,0,1,0-.07l0-.1-.09-.1a1,1,0,0,0-.11-.17s-.08-.06-.11-.09-.06-.09-.1-.13l-.11-.05s-.07-.07-.11-.09-.07,0-.1,0l-.11-.05s-.07,0-.11,0,0,0-.08,0,0,0,0,.05h0a.37.37,0,0,0-.17.26v0s0,0,0,0,0,.06,0,.09,0,.06,0,.09a.51.51,0,0,0,0,.13h0v0h0a.5.5,0,0,0,0,.12s0,.07,0,.11v-.16s0,0,0,.06v.16a.45.45,0,0,0,0,.11.85.85,0,0,0,0,.17s0,.06,0,.09a.94.94,0,0,0,.06.15v.28l.06.34.1.3a2,2,0,0,0,.13.25.56.56,0,0,0,.23.25.23.23,0,0,0,.17.07.19.19,0,0,0,.18,0,.25.25,0,0,0,.15-.1l0-.09.08,0a.39.39,0,0,0,.37-.17.84.84,0,0,0,.15-.49C690,263.39,690,263.28,690,263.17Z" transform="translate(-649.89 -259.04)"/><path class="cls-7" d="M673,264.5h0" transform="translate(-649.89 -259.04)"/><line class="cls-8" x1="23.56" y1="5.35" x2="23.72" y2="4.28"/><line class="cls-8" x1="21.5" y1="7.88" x2="21.87" y2="6.2"/><line class="cls-8" x1="22.64" y1="6.12" x2="22.14" y2="5.54"/><path class="cls-8" d="M689.63,263.92l1.07-.76-.81.76.76-.68-.88.83,1-1-1.06,1,1.08-.86a5.28,5.28,0,0,0-1.14,1l1.15-1-1.32,1.29,1.5-1.36" transform="translate(-649.89 -259.04)"/><path class="cls-8" d="M691.6,264.24V265l-.08-.83v.92l-.06-.76.08.93-.22-1.14.18,1.19-.26-1.25.22,1.38-.27-1.42a5.43,5.43,0,0,0,.36,1.68" transform="translate(-649.89 -259.04)"/><path class="cls-8" d="M692.17,264.85l.3-.25-.36.38.42-.37-.47.5.53-.46-.48.51.54-.54-.76.84.84-.84-.9,1,1-1" transform="translate(-649.89 -259.04)"/><path class="cls-8" d="M693.31,266.31l-.33.77.35-.92-.39.85.25-.88-.19.78.12-.82-.37,1.45" transform="translate(-649.89 -259.04)"/><path class="cls-8" d="M693.26,267.41l.4-.62" transform="translate(-649.89 -259.04)"/><path class="cls-8" d="M693.17,267.66a1.16,1.16,0,0,0,.44-.93" transform="translate(-649.89 -259.04)"/><path class="cls-8" d="M687,263.07a3,3,0,0,0,.82-1.12" transform="translate(-649.89 -259.04)"/><path class="cls-8" d="M686.63,263.44a3.19,3.19,0,0,0,1.3-1.42" transform="translate(-649.89 -259.04)"/><path class="cls-8" d="M688.58,262.62a1.82,1.82,0,0,0,.23,1.57" transform="translate(-649.89 -259.04)"/><path class="cls-8" d="M688.59,262.42a2.09,2.09,0,0,0,.2,1.88" transform="translate(-649.89 -259.04)"/><path class="cls-8" d="M685.37,261.88a2.71,2.71,0,0,0-.2.67.94.94,0,0,0,.15.66.58.58,0,0,0,.61.24" transform="translate(-649.89 -259.04)"/><path class="cls-8" d="M682.8,263a3.47,3.47,0,0,0,1.4-1.44" transform="translate(-649.89 -259.04)"/><path class="cls-8" d="M682.52,263.29a3.8,3.8,0,0,0,1.73-2" transform="translate(-649.89 -259.04)"/><path class="cls-8" d="M682.84,263.31a4.54,4.54,0,0,0,1.39-2.14l0,.07" transform="translate(-649.89 -259.04)"/><path class="cls-8" d="M682.66,263.36a1,1,0,0,0,.73-.51l.75-1.57" transform="translate(-649.89 -259.04)"/><path class="cls-8" d="M681.69,261.45a1.84,1.84,0,0,0,.45,1.69" transform="translate(-649.89 -259.04)"/><path class="cls-8" d="M681.46,263.27a.82.82,0,0,0,.09.61.85.85,0,0,0,.51.36" transform="translate(-649.89 -259.04)"/><path class="cls-8" d="M679.62,263.12a2.55,2.55,0,0,0,1.13-1.88" transform="translate(-649.89 -259.04)"/><path class="cls-8" d="M678.28,262.25a.94.94,0,0,0,1.76.65l.37-.81a.6.6,0,0,0,.05-.7" transform="translate(-649.89 -259.04)"/></svg>