<svg viewBox="0 0 686.49 590" xmlns="http://www.w3.org/2000/svg"><path d="m1284.8 437.84c-64.52 78.71-195.68 90.32-273 24.18-110.33-94.36-283-106.74-401.94-35.87q1.89 237.84 3.79 475.69c120.51-87.49 303-75.15 410.67 27.75 52.54 50.23 143 53.93 199.42 8.16a76.35 76.35 0 0 1 71.55-12.63 4521.85 4521.85 0 0 1 -10.49-487.28zm-56.8 55.78c1.57-2.62 4.36-4.21 7-5.7l15.62-8.67c2.72-1.51 5.95-3.05 8.79-1.79a6.9 6.9 0 0 1 3.6 4.94 21.65 21.65 0 0 1 .09 6.33 228.36 228.36 0 0 0 -.44 29.48c.19 3.85-1.62 7.82-1.47 11.68.17 4.38 2.9 7.44 1.13 9.31a33.5 33.5 0 0 1 -12 8.54c-4.26 1.65-14-1.16-18.47-2a4.67 4.67 0 0 1 -2.69-1.19c-.67-.73-2.84-28.19-2.84-41.76.01-3.14.06-6.47 1.68-9.17zm-75.55 29.59a8.67 8.67 0 0 1 4.93-5.87c2.35-.87 20.81-2.85 24.11-3.62 1.69-.4 3.45-1 5.12-.51 3.37 1 4.1 5.34 4.2 8.85l.63 21.8c.18 6.14 3.55 20.55.88 26.08s-11 1.44-16.64 3.85c-6.11 2.65-17 4.89-20.28 3-2.39-7-2.78-18.15-3-27.34l-.51-18.37a25.82 25.82 0 0 1 .56-7.87zm-77.52-.51a13 13 0 0 1 2.91-8.43 2 2 0 0 1 1.92-.83 22.2 22.2 0 0 1 6.48 1.63l22.26 8a2.36 2.36 0 0 1 1.87 2c1.63 5.24 2 10.77 2.41 16.25.65 9.14 1.3 18.33.5 27.46-.29 3.24-1.38 7.17-4.56 7.82-2 .4-3.92-.72-5.8-1.47-4.06-1.63-8.56-1.6-12.88-2.3s-9.4-2.13-10.34-4.18c-5.19-11.33-2.69-24.52-4-36.91a67.41 67.41 0 0 1 -.77-9.04zm-68-15.68q.39-11.72.06-23.43c-.08-3 .07-6.47 2.55-8.08 3-1.91 6.77.3 9.45 2.57a104.94 104.94 0 0 1 14.01 14.45 13.38 13.38 0 0 1 2 3 14.72 14.72 0 0 1 .91 4.75q1.63 21.27 3.29 42.53a6.3 6.3 0 0 1 -.1 2.25c-.5 1.73-2.45 2.72-4.26 2.71a12.74 12.74 0 0 1 -5.15-1.57c-5.52-2.59-11.25-5.35-15-10.16-1.59-2-6.5-1.81-9-2.54-.69-.19.94-18.77 1.2-26.5zm-74-31.08 5.88-40.2c.17-1.16.42-2.45 1.39-3.1s2.62-.27 3.86.25a107 107 0 0 1 20.87 11.6 16.47 16.47 0 0 1 4.37 4.07c1.92 2.89 2 6.59 2 10.05v37.71c0 3.36-.32 7.31-3.18 9.08-3.37 2.09-7.59-.35-11-2.29-5.78-3.24-12-6.35-15.42-6.51-4.23-.19-7.61-4-8.75-8.05s-.7-8.41-.09-12.61zm-148.34-68.39c.23-1.75.53-3.63 1.76-4.9 1.64-1.69 4.3-1.69 6.65-1.59l22.33 1a4.8 4.8 0 0 1 3.16.91 4.71 4.71 0 0 1 1.11 3.18c1.36 15.44.66 31-.05 46.46-.12 2.7-.37 5.69-2.35 7.53-3.14 2.93-8.15 1.07-12.45 1-3.79 0-7.43 1.49-11.21 1.86s-5.79-.31-7.72-2.24c-5.96-16.86-3.63-35.43-1.23-53.21zm-81.47 14.19a13.62 13.62 0 0 1 1.55-6.23c3.51-6.48 9.32-4.08 14.45-4.85 5.81-.88 10.42-5.8 16.25-6.57a3.3 3.3 0 0 1 2.34.36 3.65 3.65 0 0 1 1.18 2.09c3.77 12.85 3.29 26.58 1.4 39.84-.91 6.39 4 16.75 0 21.84-3.55 4.58-17.57 6.59-25.29 7.48a7.92 7.92 0 0 1 -8.21-4.71c-2.55-6-3.08-13-3.37-19.59q-.59-14.82-.3-29.66zm-72 27.69a16 16 0 0 1 .51-3.95c2.22-8.28 9.34-6.34 14.83-8.24 4.19-1.45 7.3-5.09 11.43-6.67a3.81 3.81 0 0 1 2.5-.25c1.51.5 2 2.36 2.23 3.94a202.93 202.93 0 0 1 1.51 46.79 16.21 16.21 0 0 1 -1.37 6.13 12.93 12.93 0 0 1 -2.91 3.56c-5.68 5.24-7.8 8.61-16.11 8.23-.51 0-3.31 0-5.84.1a11.82 11.82 0 0 0 -2 .32c-1.87.4-3.11-1.18-4.17-3.14a11.35 11.35 0 0 1 -1.34-5.62zm32 392.91c-.15 5.1-.51 10.4-3 14.85a9 9 0 0 1 -2.62 3.09 11.6 11.6 0 0 1 -3.46 1.4 139.23 139.23 0 0 1 -22 4c-3-3.3-1.69-8.42-.84-12.79 2.4-12.44-.43-25.24-.29-37.91 0-3.07.35-6.39 2.42-8.65 1.5-1.63 3.68-2.43 5.77-3.16l17.36-6.17c1.19-.42 2.68-.78 3.59.1a3.39 3.39 0 0 1 .77 2.07 259.15 259.15 0 0 1 2.28 43.17zm76.2-16.79c-5 7-27.95 13.26-32.68 13.43a7 7 0 0 1 -3.91-.67c-1.87-1.11-2.42-3.52-2.75-5.68a154.36 154.36 0 0 1 -1-39 24.28 24.28 0 0 1 1.74-7.74c2.78-6 9.53-9 15.88-10.73a93.14 93.14 0 0 1 17.45-3.15c2.43-.21 5.32-.11 6.68 1.91a7.27 7.27 0 0 1 .84 4q.2 17 .41 34c.09 4.73.02 9.79-2.68 13.63zm78.55-3c-.12 1.72-.38 3.66-1.77 4.66a5.74 5.74 0 0 1 -3.22.79 72.84 72.84 0 0 1 -26-3.38c-2.71-.9-3.7-4.16-4.23-7a153.92 153.92 0 0 1 -2.59-32.49c.12-4.43.58-9.24 3.57-12.52 3.67-4 9.79-4.36 15.24-4.41l7.53-.06c3.23 0 6.9.13 9 2.57 1.48 1.72 1.77 4.13 2 6.38a287 287 0 0 1 .45 45.42zm-31.47-80.27c-46.73-11.73-98.58-1-136.77 28.41-7.27 5.59-22.71.41-21.08-8.62 9.6-53.2-5.19-142.82-8-192.84-1.25-22.6 13.56-33.69 36-47.83 30.92-19.45 99.22-16.94 128.19-23.81 16.26-3.89 34.26 10.2 34.36 26.9l1.41 190.86a27.47 27.47 0 0 1 -34.13 26.89zm77.42-328a5.31 5.31 0 0 1 6.66-3 39.67 39.67 0 0 0 10 2.31c3.5.27 7.21-.14 10.34 1.46 5.51 2.83 6.44 10.17 6.68 16.36l1.37 34.59a10.86 10.86 0 0 1 -.89 4.91c-2.81 6.1-9.3 4.78-14.45 3.19s-10-3.32-15.33-4.72c-4.23-1.11-6.72-11.44-7.25-18-.95-12.54-1.83-25.8 2.85-37.18zm35.24 373.72q-.39 24.24-1.36 48.46c-.07 1.8-.28 3.87-1.75 4.92a5 5 0 0 1 -2.79.73c-12.13.26-20.86-15.12-31.31-13.86a295.12 295.12 0 0 1 .88-52.08c11.53-.8 22.82 3.14 33.54 7.45a4.69 4.69 0 0 1 2.18 1.39 4.76 4.76 0 0 1 .61 2.99zm72.43 84.82a2.65 2.65 0 0 1 -1.94 1c-2.48.34-4.86-1-7-2.19l-19.64-11.22c-1.47-.84-3-1.77-3.78-3.29s-.92-36 .5-52.52a5.64 5.64 0 0 1 .89-3.09c1.42-1.8 4.25-1.26 6.4-.45a76.77 76.77 0 0 1 18.39 10 12.08 12.08 0 0 1 4.12 4.41 13.1 13.1 0 0 1 .81 4.95l1.62 50.41a3.47 3.47 0 0 1 -.37 1.98zm67.62 8.87a106.29 106.29 0 0 0 -.29 31.1 3.6 3.6 0 0 1 -.4 2.84 3.11 3.11 0 0 1 -2 .87 17.9 17.9 0 0 1 -12.3-2.5 35.34 35.34 0 0 1 -7.53-7.13c-3.81-4.38-9.27-8.14-9.72-11.91-2.16-17.82 5-36 1.94-53.64.62-1 2.11 0 2.83 1 7.36 9.59 23.31 11.2 27.62 22.48 2.07 5.29.74 11.2-.15 16.88zm-2.41-64.69a803 803 0 0 0 -169.55-76.63c-10.6-78.35 15.13-124.23-4.79-240.54 43-2.57 148.42 30.39 168.78 72.12 21.43 44 8.33 60.29 13.53 106.43s-.44 92.78-7.97 138.62zm79.54 75.58q-.84 20.24-3 40.39a24 24 0 0 1 -2 8.4c-1.3 2.57-3.79 4.75-6.68 4.86-3.36.14-6.13-2.38-8.9-4.29a28.72 28.72 0 0 0 -15.52-5c-1.79 0-6.07-16.34-5.82-24.2q.5-15.54 1-31.07c.11-3.65 1-3.07 7.67-4 7.61-1 14.06 6.21 21.72 6.79 3.62.27 8-.7 10.28 2.13 1.35 1.6 1.34 3.88 1.25 5.97zm72.93 46.42c-5.15 4-18.26 4-25 3.14a9.67 9.67 0 0 1 -8.47-8 53.23 53.23 0 0 1 -.47-5.76q-.69-16.46-1.39-32.91a16.13 16.13 0 0 1 .41-5.46c1-3.29 4.09-5.52 7.18-7.07 8.4-4.22 18.07-5 27.47-5.08a2.19 2.19 0 0 1 1.77.55 2.17 2.17 0 0 1 .33 1c1.49 11.18-.15 22.52-.46 33.8-.12 4.64 0 9.33-1 13.88s3.29 9.08-.37 11.91zm74.83-48.4a15.86 15.86 0 0 1 -1.23 6.07c-1.39 2.8-4.23 4.55-6.93 6.13q-8 4.65-16.14 9c-2.94 1.57-7 3-9.23.55-.4-.42-1-30.15-1.25-45.13 0-2.56 0-5.22 1-7.55 1.4-3.09 4.42-5.08 7.35-6.8q6.53-3.84 13.42-7c3.3-1.52 8-2.59 10 .46a7.7 7.7 0 0 1 1 3 181.57 181.57 0 0 1 2.01 41.27zm.13-109.05c-.47 23.61-19.41 45.54-42.7 49.44-18.74 3.14-35.85 12.25-53.31 19.73s-36.58 13.52-55.25 10-36.21-19.37-35.58-38.36c1.41-42.13 5.44-84.31 3.36-121.28l-4.65-83.79c-.26-4.57 4.86-8.55 9.22-7.17 52.54 16.57 113.58 2.49 153.54-35.42 9.84-9.34 29.5-.66 29.23 12.9q-1.93 96.98-3.83 193.95z" fill="#fff" stroke="#000" stroke-miterlimit="10" transform="translate(-609.34 -380.3)"/></svg>