<svg id="Layer_2" data-name="Layer 2" xmlns="http://www.w3.org/2000/svg" viewBox="0 0 975.27 885.24"><defs><style>.cls-1{fill:#fff;stroke:#000;stroke-miterlimit:10;}</style></defs><path class="cls-1" d="M806,710.14a435.21,435.21,0,0,0,7.92-93.78c-.2-8.27-.52-17,3.51-24.24,3.65-6.55,10.29-10.75,16.44-15a205.82,205.82,0,0,0,62.57-69.51c-2-5.23-8.91-7.07-14.22-5.32s-9.35,6-13.14,10.12l-56.84,61.66,14-58.47a17.31,17.31,0,0,0,.69-7c-.39-2.24-1.66-4.26-2.06-6.51-.6-3.29.71-6.59,2-9.68,14.46-34.74,30.48-71.45,61.63-92.58,9.5-6.44,20.89-12.05,25.05-22.75-5-5.75-14.06-6.46-21.19-3.74s-12.83,8.18-18.31,13.5Q858.5,401.93,843,417.11c-5.89,5.77-12.29,13.07-10.61,21.14-5.68-18.62,2.38-38.37,10.28-56.17l25.41-57.18c3.19-7.18,6.43-14.53,7.1-22.36s-1.66-16.37-7.85-21.2c1.32,14.25-12.2,24.86-19.3,37.29-12.49,21.9-5.81,52.77-23.31,70.91a107.35,107.35,0,0,1,4.32-45c2.36-7.4,5.57-14.81,5.27-22.58s-5.59-16.09-13.36-16.51a337.53,337.53,0,0,0-.65,121.71,147.32,147.32,0,0,1-21.89-42.57c-.53-1.64-1.11-3.41-2.52-4.41-3.4-2.41-8.1,2.33-7.4,6.45s4.25,7,7.31,9.88a67.12,67.12,0,0,1,21.09,53.07,81.19,81.19,0,0,0-44.38-49.16c2,19.27,26.43,28.1,33.68,46.06,4.65,11.52,1.37,24.51,1.43,36.92,0,5.44.7,10.92-.18,16.28-.83,5-3,9.75-4.63,14.6-6.21,18.59-4.1,38.8-1.92,58.29a119.74,119.74,0,0,1-10.1-36.78c-.73-6.64-.92-13.37-2.4-19.89a102.21,102.21,0,0,0-5.19-15.28L766.42,458.7c-1.89-4.74-5.29-10.4-10.33-9.6-5.83,14.88,5.75,30.29,10.35,45.6,5.07,16.83,1.51,34.89,2,52.46.76,29.28,12.73,57.26,14.86,86.47.91,12.44.06,25.27,4.15,37,1.49,4.28,3.61,8.38,4.39,12.85,2.1,12.18-6,25.59-.28,36.53,1.55,3,4.52,5.57,7.83,5.21C805.35,724.63,804.81,716.22,806,710.14Z" transform="translate(-345.82 -280.23)"/><path class="cls-1" d="M819.87,722.34c-11.59-23.24-23.34-50.44-12.76-74.16,3.15-7,8.15-15.28,3.88-21.72a134.27,134.27,0,0,0-31,49c-6.9-1.8-9.2-10.53-8.77-17.65s2.22-14.77-1.18-21.05c-2.79-5.14-8.41-8-12.41-12.28-12.77-13.63-5.78-35.38-.48-53.29,8.14-27.49,9.86-58.94-5.3-83.28A86.81,86.81,0,0,0,746.4,534c1.78,11.47,5.87,23.23,2.7,34.4s-18.49,19.43-26.54,11a20.45,20.45,0,0,1-4.25-8.14,67.87,67.87,0,0,1,.09-40.73c.79-2.47,1.74-5,1.26-7.58-1.18-6.31-10.55-7.71-15.58-3.72s-6.7,10.76-8.08,17c-2.47,11.33-3.85,25.64,5.76,32.12,3.57,2.41,8.44,3.47,10.44,7.29,1.62,3.1.68,6.84.27,10.32a32.75,32.75,0,0,0,13.37,30l-55.68-45.15c-9.74-7.9-19.6-15.92-27.11-26-8-10.68-13-23.24-17.94-35.63l-30.45-76.47c-1.14-2.87-2.46-6-5.15-7.48-4.24-2.41-10,.56-12.07,4.95s-1.58,9.57-.64,14.36c3.89,20,13.69,38.33,23.36,56.29L643,580.56c2.41,4.46,6.7,9.69,11.41,7.81-26.21-5.46-48.89-25.44-57.61-50.75-3.87,25.21,16.39,47,35,64.47,7,6.52,14.16,13.19,23,16.75,11.2,4.51,23.8,3.57,35.61,6.1,20.38,4.37,37.2,18.84,50.37,35s23.59,34.44,37,50.41c2.8,3.34,5.92,6.7,10.05,8.07,3.29,1.08,6.94.8,10.16,2.07,15,5.92,3.36,31.86,14.41,43.52-16.54,9.11-21,31.45-17.45,50s13,35.48,17.39,53.85c4.21,17.61,3.67,36.26,9.49,53.4,5.53,16.31,16.45,30.19,27.85,43.09a486.72,486.72,0,0,0,78.14,71.17c-9.81-30-20.09-60.85-40.63-84.82-6.53-7.61-14-14.4-20.28-22.21-12.33-15.34-19.63-34-26.75-52.35-9-23.1-18.09-47.77-13.25-72.07,3.92-19.73,16.56-36.44,29-52.22,3.29-4.17,6.81-8.5,11.71-10.54,4-1.65,8.46-1.64,12.41-3.3,12.66-5.34,13.73-24.22,25.34-31.57,6.4-4.05,14.56-3.65,21.88-5.64,11.14-3,19.87-11.45,28.08-19.57l51.38-50.79c16.9-16.71,35.28-39.16,27.24-61.53l-6,10.22c-7.93,13.46-16,27.13-27.44,37.77-23.39,21.77-58.61,28.89-78.76,53.69-3.86,4.74-7.2,10.16-12.41,13.35-6.54,4-14.79,3.73-22,6.39-13.18,4.89-20.59,18.43-28.26,30.22s-19.07,23.84-33.07,22.62l49.74-64.45c5-6.42,10-12.9,16.31-17.94,14.67-11.65,35.94-15.27,46.31-30.87,4.14-6.23,6-13.7,9.75-20.18,10.93-18.9,34.76-25.23,52.2-38.38,4.72-3.56,9.28-10.33,5.38-14.78-4.39-5-12.33.22-16.79,5.19a354.44,354.44,0,0,1-75.6,63.61c6.25-17,20.65-29.45,34.48-41.13l58.89-49.7c5.47-4.61,10.7-14.08,4.44-17.56-2.69-1.5-6.09-.53-8.79,1-11.6,6.36-16.52,20.06-22.69,31.76s-17.46,23.57-30.42,20.92c6.08-22,32.56-31.73,43.8-51.62,7.38-13.06,7.3-28.84,9.94-43.61a115.7,115.7,0,0,1,15.63-40.68c2.09-3.35,4.43-6.81,4.67-10.75s-2.64-8.38-6.59-8.14c-3.45.2-5.7,3.6-7.38,6.63l-25,45c-7.55,13.58-15.35,28.42-13.2,43.81-7.17-11-5.49-25.68-1.14-38.11s11.09-24.1,13.55-37c1.48-7.77-1.48-18.75-9.37-18.17-9.35.69-8.38,14.49-6.74,23.73,5.72,32.24-17.91,63.81-16.66,96.5-8.33-6.33-10.33-18.14-9.22-28.54s4.62-20.53,4.73-31c-13.48,7.22-15.42,25.42-15.68,40.71-.07,4.14-.08,8.5,2,12.09,1.53,2.69,4.09,4.69,5.64,7.38,4.78,8.33-1.82,18.3-7.45,26.09-9.27,12.81-16.65,26.9-22.89,41.43-3.51,8.16-6.7,16.53-11.42,24.07-12.19,19.48-33.86,32.24-43.49,53.11-2.46,5.35-4.05,11.07-6.69,16.33C840.69,711,830.35,719.53,819.87,722.34Z" transform="translate(-345.82 -280.23)"/><path class="cls-1" d="M796.38,824.72c-20.08-31-40.86-64.05-41.72-100.94-.22-9.55-.39-21.46-9-25.51-3.21-4.46-1.88-10.72.45-15.7s5.56-9.79,5.88-15.28-4.06-11.75-9.46-10.72a150.81,150.81,0,0,1-1.67,55.86A80.12,80.12,0,0,1,725,656.87c1.18-12.4,4.1-27.76-6.11-34.89-2.61-1.82-5.74-2.73-8.47-4.36-11.85-7.06-12.16-23.74-11.48-37.51s-1-30.78-13.65-36.25A648.92,648.92,0,0,0,706.85,642c2.33,7.7,4.83,15.5,4.89,23.55.06,7.24-1.87,14.41-1.67,21.65s3.32,15.2,10,17.91c-10.12-1-18.85-8.34-23.53-17.37s-5.79-19.5-5.42-29.65c.32-8.92,1.7-17.85.74-26.72s-4.75-18-12.34-22.7c-11.38-7-29.59-3.5-35.81-15.33,9,3.38,13.81,12.84,17.85,21.52l15.33,32.92c1.55,3.33,3.13,6.76,3.28,10.42.45,11-11.67,21.72-6.31,31.31,1.55,2.77,4.29,4.62,7,6.29a155.71,155.71,0,0,0,34.82,16.05c3.88,1.24,7.9,2.36,11.21,4.74,12.92,9.27,7.73,29.85,14.54,44.22,2.32,4.89,6.21,9.74,5.13,15.05-1.76,8.7-15.29,9-21.5,2.62s-7.83-15.72-11.6-23.74A46.43,46.43,0,0,0,691,732.47l31.87,46.35,5.34,7.78,24.93,36.26a32.17,32.17,0,0,1,4.64,8.43c1.81,5.76.33,12.2,2.34,17.89,2.92,8.25,11.94,12.27,18.84,17.66,23.45,18.31,23.39,54.32,41.59,77.85,11.38,14.73,29,23.29,46.75,28.93a53,53,0,0,1-9.88-40.22c.6-3.57,1.58-7.15,1.27-10.77-.57-6.81-5.48-12.33-9.88-17.56a196.54,196.54,0,0,1-38.29-71.68C802.65,830.35,795.53,825.49,796.38,824.72Z" transform="translate(-345.82 -280.23)"/><path class="cls-1" d="M696.6,904l-44.3-51.64c-9.71-11.32-19.59-22.92-25-36.81-2.21-5.67-3.87-12-8.56-15.89q-2.88,16.62-5.77,33.24c-1,5.56-1.94,11.22-1.16,16.8,1.1,7.86,5.54,14.8,9.88,21.45,7.39,11.37,15.54,23.37,28.1,28.5C658,903,669.1,904.48,671.7,913a62.58,62.58,0,0,1-43.07-21c-5.48-6.25-9.64-13.52-13.76-20.74l-13.7-24L582.3,814.23l-39-68.45c-2.51-4.42-5.06-8.89-6.39-13.79-1.78-6.51-1.34-13.45-3-20s-6.34-13.22-13.08-13.65a156.94,156.94,0,0,0,39.32,118.82c-19.17-8-31.73-27-38.73-46.56s-9.54-40.45-15.32-60.42c-2.65-9.19-8.81-20-18.3-18.8-5.32,9.1-.19,20.64,5.7,29.4s12.94,18.29,11.24,28.71c-13.18.1-21.55-14.36-24-27.31s-2.3-27.32-10.5-37.65a38.17,38.17,0,0,0-7.09,35.66c-14-42.49-28.59-85.5-53.78-122.48-3.71,12.45,1.92,25.57,7.43,37.33L447,699.43l-40.86-36.89c-7-6.3-14.24-12.77-23.19-15.6-6.81-2.15-14.13-2-21.06-3.76s-14-6.11-15.54-13.09c.75,9.43,7.81,17.07,15.05,23.15,34.91,29.26,85.14,43.71,105.12,84.65,7.23,14.82,9.69,32,19.4,45.34s25.57,21,40.24,29c20.24,10.94,39.83,23.78,55,41.07,8.16,9.3,14.92,19.76,23.07,29.06,21.14,24.14,50.44,39.3,79,53.85,2.56,1.3,5.2,2.62,8.06,2.91s5.74-.52,8.57-1.1c27.55-5.64,55.49,9.49,75.51,29.23s34.84,44.21,54.45,64.36,46.62,36.38,74.47,32.48c6.06-19.94-12.38-38.21-28.88-50.94l-65.19-50.34c-15.15-11.69-30.54-23.64-41.47-39.36-6.89-9.92-12.1-21.44-21.63-28.86s-25.7-8.44-32.06,1.84c-1.42,2.3-2.24,5-4,7.06-6.41,7.71-19.4,1.86-25.13-6.36S676.78,878.2,696.6,904Z" transform="translate(-345.82 -280.23)"/><path class="cls-1" d="M727.15,910.06a129.11,129.11,0,0,1-28.49-53.12c-3.06-11.68-4.12-25.18,3.13-34.84,3.48-4.63,8.66-8,11.05-13.31,2.17-4.8,1.66-10.33,1-15.56A342.5,342.5,0,0,0,698,725.65c-1.3-3.76-3.89-8.28-7.82-7.63-3.53.59-4.84,4.93-5.23,8.49-3.16,28.88,5.36,57.62,13.78,85.43-2.21,4.55-9.48,4-12.83.25S682,803,681.64,797.92l-2.93-41.25c-.82-11.65-4.88-26.68-16.55-27.21q3.81,25.8,7.63,51.59L636,709.38c-2.91-6.18-5.9-12.47-10.55-17.49-4.29-4.64-9.82-8-14-12.71-8.75-9.76-10.62-23.63-14.67-36.1s-12.93-25.62-26-26.12c-5.48,10-3.17,22.58,1.59,32.94s11.77,19.63,16,30.23c5.63,14.13,6.29,30.5,15.41,42.66,4.3,5.72,10.14,10,15.52,14.74,21.19,18.57,35.43,43.89,45.83,70.08-36.09-20.55-50.78-64-75-97.74-6.57-9.14-14-17.71-19.61-27.44-10.15-17.53-14-37.85-20.17-57.14s-15.57-38.93-32.78-49.59c-4.52,13.36,1.25,27.79,6.93,40.71L568.6,717c4.27,9.72,8.57,19.49,14.32,28.41,6.08,9.44,13.69,17.78,21.25,26.08,10,10.91,20,21.93,32.35,30.08,6.3,4.17,13.21,7.61,18.4,13.09,19.46,20.54,6,58,24.14,79.71,11,13.13,29.76,15.88,46.77,17.72C726.14,908.78,726.45,905.44,727.15,910.06Z" transform="translate(-345.82 -280.23)"/><path class="cls-1" d="M683.69,328.5a10.35,10.35,0,0,0,10.61,5.08" transform="translate(-345.82 -280.23)"/><path class="cls-1" d="M971.42,1061.47a188,188,0,0,1-4.32-90.57c1.52-7.6-1.65-19.77-8.63-16.4-3.14,1.52-3.86,5.6-4.19,9.07l-3.18,34c-20.56-8.88-31.39-31.09-40.52-51.56L897,915.45c-6.66-14.93-13.4-30.16-15.21-46.41-4.14-37.3,18-72.06,40.93-101.79q28.41-36.88,60.27-70.91c15-16,30.61-31.58,44-49,13.69-17.72,25-37.16,36.23-56.53,15.34-26.41,31-53.86,34.18-84.24,1.52-14.68.82-31.52,11.57-41.63,8.32-7.82,23.82-15,18.68-25.16-2.51-5-9.45-6.29-14.57-4.13s-8.69,6.85-11.56,11.61c-21,34.77-16,80.81-37.83,115.06-6.43,10.11-15,18.74-21.6,28.72C1026.22,615,1020.16,647.36,995.5,662c7.42-49.52,58.9-86.05,59.23-136.12.06-9-1.58-18-.3-26.81,3.34-23,25.62-41,25-64.16a10.27,10.27,0,0,0-1.62-5.94c-3.66-4.84-11.58-1.55-15.48,3.09-10.66,12.7-10.69,30.82-13,47.24-7.86,55.56-46.66,102-61.26,156.16-3.8,14.13-6,28.78-11.46,42.34S961.4,704.12,947.62,709c-5-18.5,4.4-37.53,13.53-54.39l33.79-62.4c9.5-17.54,19.29-36.32,17.84-56.21-.89-12.33-6.12-24.41-4.45-36.66,3.94-29,43.24-43.37,46.49-72.48-7.5-5.77-18.84-4-26.33,1.78s-11.85,14.69-15.21,23.54C992,508.17,999.57,576.09,961.62,622.36c-9,11-20.27,20.16-28.9,31.52S918.13,680,922,693.71c1.34,4.83,3.82,9.26,5.38,14,5.38,16.53-2.25,36.33-17.33,45-9,5.13-19.89,6.58-28,12.94-8.29,6.47-12.28,17-15,27.1a194.73,194.73,0,0,0-.28,101c1.13,4.24,2.41,8.74,1.09,12.93-2.2,7-10.37,9.9-15.66,15-10.25,9.88-8.37,27.3-1.09,39.54s18.71,21.43,27.27,32.81c10.54,14,16.42,31,25.48,46,12.74,21.16,31.4,38,46.86,57.27s28.15,43,25.43,67.52l43.34-9.34c6.95-1.5,14.22-3.15,19.58-7.81,15.18-13.21,5.32-38.68,12.45-57.49,2.66-7,7.66-12.87,11.41-19.38,7.18-12.45,9.66-27,13.85-40.71,9-29.44,26-55.68,42.77-81.47l57.91-88.93c9.66-14.84,19.36-29.73,30.77-43.29,6.94-8.24,14.49-16,21.07-24.49,7.29-9.43,13.32-19.76,19.12-30.18a874.51,874.51,0,0,0,52-111.16c-13.57,3.21-22.86,15.49-30.07,27.43-27.14,44.94-42.37,97.6-77.72,136.41-20.64,22.67-47.57,39.86-63.86,65.84-10.56,16.83-16.06,36.51-27.22,53-17.54,25.86-49.83,46.92-47.17,78-6.17-15-2.32-32.39,4.72-47s17.09-27.63,24.13-42.24c11.25-23.32,14.49-49.95,26.45-72.91,12-23.12,32-40.9,51.57-58.14L1228,732.05c5.65-5,11.35-10,15.67-16.18,6-8.58,9.31-19.24,17.18-26.15,5.75-5.05,13.43-7.6,18.85-13,4.32-4.32,6.82-10.08,9.22-15.7q14.13-33.09,28.25-66.19c4.27-10,6.18-25.41-4.32-28.22-8.76-2.36-15.43,7.63-19,16l-31.26,73.08c-5.94,13.88-13.08,29-27,34.91-4.83-13.1.1-27.9,7.56-39.7s17.41-22,24.08-34.23c16.1-29.61,9-69.93-16.32-92.22-10,34.06,5.76,73.22-9.94,105.05-6.44,13.06-17.58,23.31-24.34,36.21s-7.55,31.29,4.3,39.77c2.55,7.13-7.77,13.55-14.49,10.08s-9-12.16-8.3-19.69,3.56-14.75,4.11-22.29c.71-9.8-2.53-19.4-5.72-28.69l-22.81-66.36c-1.87-5.45-3.77-11.06-3.5-16.82.5-11,7.76-25-1.38-31.24-22.09,29.45-12.09,71.75,4.68,104.52,5.52,10.79,11.81,21.77,12.34,33.88.59,13.27-5.84,25.72-8.82,38.67s-1,29.25,10.85,35.32c-7.92,11.31-17.4,23.61-31.08,25.47-5.21.72-10.54-.22-15.74.58-12.75,2-21.73,13.7-26.71,25.59s-7.48,24.94-14.41,35.83c-10.4,16.36-29.51,25.78-39.48,42.41-5.62,9.38-7.89,20.32-10.25,31a995.39,995.39,0,0,1-31.92,112.54c-5,14.41-11.2,29.75-24.2,37.72-6.91,4.23-16.57,7.82-16.78,15.92C973,1070.11,969.19,1065.44,971.42,1061.47Z" transform="translate(-345.82 -280.23)"/><path class="cls-1" d="M1011.18,1050.11c-15.27-19-20.34-44.63-18.6-68.94s9.7-47.71,18.14-70.57c6.36,1.61,13-2.64,16.4-8.23s4.41-12.27,5.63-18.7a208,208,0,0,1,13.49-43.77c2.69-6.19,5.9-12.53,11.45-16.37,3.14-2.17,6.9-3.44,9.68-6,3-2.79,4.5-6.77,5.91-10.6l14-37.76c4.92-13.29,10.1-27,20-37.13,11-11.12,27.51-17.77,33.1-32.36-3.55-4-10-.46-14,3.13-12.08,10.92-24.32,22-32.8,35.93-12.43,20.38-16.1,45.7-31.22,64.18-7.2,8.8-16.74,15.66-22.95,25.2-6.68,10.27-8.91,22.72-13.11,34.23s-11.61,23.2-23.4,26.56a119.38,119.38,0,0,1,26.64-64.35c9.48-11.47,21.7-22.35,23.48-37.12-13.45-1.18-23.12,12.45-28.62,24.78S1012.78,839,999.75,842.5c-2.59-17.65,6.06-35,16.15-49.69s22.06-28.63,27.61-45.58c3.18-9.71,4.14-20.14,8.3-29.48,12.91-29,52.64-40,62.41-70.13l-33.46,28.5c-1.14-8.39,4.53-16.2,10.84-21.85s13.72-10.44,18.06-17.71c6.78-11.37,4.48-26.07,9.49-38.32,6.81-16.66,26.57-27.75,27-45.75.14-5.31-4.36-12-9.08-9.53-1.72.9-2.68,2.76-3.53,4.51l-25.79,52.75c-4.11-3.56-4.21-10-2.61-15.18s4.55-10,5.55-15.32c2.17-11.66-5.24-22.73-12.27-32.28-12.82,24.4-2.87,53.81-.08,81.24a8.6,8.6,0,0,1-.43,4.65c-1.45,2.89-5.79,3.18-8.45,1.35s-4-5-5.07-8.07c-.68,35.92-24,66.93-46.16,95.21-20.4,26-41.53,54-44.82,86.92-.61,6.09-.59,12.28-2,18.23-2,8.3-6.71,15.68-9.48,23.76s-3.21,17.92,2.5,24.26a41,41,0,0,1-28.72-23.25c-2.57-5.83-3.76-12.26-7.06-17.7s-9.77-9.81-15.83-7.86a63,63,0,0,0,20.9,38.53c10.24,8.89,25,18,22.5,31.33-32.78-6.88-37.28-61-70.15-67.47-4.55,12.94,2.66,27.38,12.72,36.7s22.78,15.23,33.7,23.53S973,899.27,972.39,913c-15.06.22-25.18-14.61-33.93-26.86a200.26,200.26,0,0,0-44.41-45c-4.16,22,13.62,41.9,31.72,55.1S965,921.65,973,942.61c9.95,26.32-4.94,55-7.17,83-1.5,18.83,2.81,37.59,7.09,56,.48,2.07,1,4.3,2.69,5.67a8,8,0,0,0,5.71,1.39c8.61-.58,16-7,20.1-14.54S1007,1057.87,1011.18,1050.11Z" transform="translate(-345.82 -280.23)"/><path class="cls-1" d="M956.05,1164c-25.21-6.28-36-35-48.76-57.61-12.37-21.85-29.63-40.46-46.74-58.85l-19.95-21.46c-4.33-4.65-8.85-9.44-14.72-11.88-5.27-2.18-11.14-2.26-16.81-2.88-30.23-3.31-57.2-23.25-73.09-49.18-6-9.77-10.77-20.61-19.23-28.34-14.36-13.14-39.36-18.26-42.39-37.47-1.15-7.31,1.59-14.62,4.28-21.51l13.59-34.86a67.3,67.3,0,0,1,5.62-12c2.65-4.13,6.18-7.63,9.16-11.55,13.27-17.43,14.44-41.61,9.17-62.88-2.12-8.6-5.22-17.37-3.65-26.09s10.18-16.95,18.61-14.26c9,2.88,10.76,15.27,7.91,24.31s-8.59,17.47-8.51,26.95c.05,5.68,2.22,11.12,2.83,16.76,1.32,12.25-4.71,24-11.34,34.42s-14.23,20.67-16.62,32.76,2.36,26.73,14,30.9a45,45,0,0,1,2.9-35.47c9.91.77,13.41,13.8,12,23.65s-4.8,20.76.69,29c2.74,4.14,7.69,8,6.53,12.76-.6,2.49-2.73,4.25-4.25,6.31-5,6.76-2.94,16.86,2.61,23.17s13.72,9.62,21.74,12.14c9.06,2.85,18.77,5,28,2.7,5.95-1.47,11.3-4.71,17-6.82,25.75-9.47,57.84,8.79,62.86,35.77.63,3.39,1,7.06,3.16,9.74,4.66,5.73,13.7,3.24,21,4.25,13.7,1.89,21.28,16.42,32,25.17,11,9,26.76,12.79,33.89,25.07,5.56,9.57,4.12,21.43,4.31,32.5a102.37,102.37,0,0,0,12.68,47.48c3.35,6.07,7.43,12.14,7.78,19.06C985.11,1160.73,967.58,1166.85,956.05,1164Z" transform="translate(-345.82 -280.23)"/></svg>