<svg xmlns="http://www.w3.org/2000/svg" viewBox="0 0 679.13 339.42"><defs><style>.cls-1{fill:#fff;stroke:#000;stroke-miterlimit:10;}</style></defs><g id="Layer_2" data-name="Layer 2"><path class="cls-1" d="M1161.76,826.05c.72,3.29,2.71,11.25,3.09,12.9,2.34,10.1-1.67,36.52-3.06,46.79C1153.3,948.1,994,1019.36,873.93,1016.48,747.28,1013.43,587.15,982.75,518.19,916c-18.45-17.84-31.63-26.39-30.07-61.55C491.32,855.84,1161.76,826.05,1161.76,826.05Z" transform="translate(-486.94 -677.65)"/><path class="cls-1" d="M503,893.12C475,862.05,487,784,521,759.48c127.62-92,318.57-106,488.92-41.7,33.26,12.55,120.94,55.05,141.63,84s13.6,87.23-12.23,111.67c-95.3,90.19-215.94,106.83-346.11,90.31C689.27,990.53,571.12,968.58,503,893.12Z" transform="translate(-486.94 -677.65)"/><path class="cls-1" d="M617.6,906.21c-22-30.69-12.81-73.81,19.36-93.56a322.86,322.86,0,0,1,370.26,21.64c31.82,25.22,25.69,75.48-11.33,92.16-107.32,48.34-234.27,51.17-343.64,7.69C638.1,928.51,626.31,918.37,617.6,906.21Z" transform="translate(-486.94 -677.65)"/></g><g id="Layer_3" data-name="Layer 3"><path class="cls-1" d="M927.25,900" transform="translate(-486.94 -677.65)"/></g></svg>